<svg width="798" height="249" xmlns="http://www.w3.org/2000/svg">

 <g>
  <title>background</title>
  <rect fill="none" id="canvas_background" height="251" width="800" y="-1" x="-1"/>
 </g>
 <g>
  <title>Layer 1</title>
  <g stroke="null" id="svg_1">
   <g stroke="null" id="svg_2">
    <g stroke="null" id="svg_3">
     <polygon stroke="null" id="svg_4" fill="#A9E6EF" class="active-path" points="103.40625,144.59375 148.03125,73.9375 148.03125,233.84375 103.40625,233.84375 "/>
    </g>
    <g stroke="null" id="svg_5">
     <polygon stroke="null" id="svg_6" fill="#A9E6EF" class="active-path" points="192.65625,55.34375 237.28125,10.718742370605469 237.28125,233.84375 192.65625,233.84375 "/>
    </g>
    <g stroke="null" id="svg_7">
     <polygon stroke="null" id="svg_8" fill="#A9E6EF" class="active-path" points="14.15625,189.21875 58.78125,159.46875 58.78125,233.84375 14.15625,233.84375 "/>
    </g>
    <g stroke="null" id="svg_9">
     <path stroke="null" id="svg_10" fill="#FF4F19" d="m237.281259,6.999991l-29.750001,0c-2.055539,0 -3.71875,1.663211 -3.71875,3.71875s1.663211,3.71875 3.71875,3.71875l20.772473,0l-37.7574,37.7574l-43.94633,18.311126c-0.125973,0.052527 -0.20825,0.155258 -0.325391,0.219406c-0.215688,0.116676 -0.411387,0.246832 -0.602902,0.406738c-0.198488,0.166879 -0.366762,0.344449 -0.523414,0.545727c-0.079953,0.100871 -0.191516,0.16223 -0.262172,0.272863l-41.246052,65.306366l-19.281255,-35.349509c-0.082277,-0.150609 -0.218477,-0.243113 -0.317488,-0.377453c-0.155723,-0.214293 -0.304008,-0.423008 -0.505285,-0.601508c-0.19291,-0.170133 -0.407668,-0.285879 -0.628004,-0.410922c-0.152004,-0.087391 -0.266355,-0.217082 -0.434164,-0.28402c-0.05857,-0.023707 -0.120395,-0.012551 -0.17943,-0.033469c-0.231957,-0.079953 -0.468563,-0.098547 -0.711676,-0.132016c-0.243113,-0.033004 -0.478789,-0.083207 -0.719113,-0.067867c-0.207785,0.012551 -0.404414,0.083207 -0.61034,0.131551c-0.26868,0.064148 -0.529922,0.119465 -0.777219,0.240789c-0.052063,0.025566 -0.109703,0.021848 -0.161301,0.049738c-0.14782,0.080418 -0.238465,0.214758 -0.370945,0.311445c-0.216152,0.157117 -0.427191,0.305867 -0.607086,0.509469c-0.174316,0.196629 -0.292387,0.4165 -0.419289,0.641484c-0.084602,0.148285 -0.211969,0.259383 -0.276582,0.422543l-21.88345,54.708393l-43.66324,29.108982c-1.710625,1.140262 -2.17175,3.446352 -1.031488,5.156977c0.715395,1.074719 1.895633,1.655774 3.097719,1.655774c0.707957,0 1.423352,-0.203602 2.059258,-0.62475l44.620353,-29.746747c0.366762,-0.242648 0.671234,-0.570363 0.936195,-0.937125c0.085996,-0.118535 0.146891,-0.242184 0.217082,-0.368621c0.078094,-0.139918 0.181289,-0.258453 0.242184,-0.411387l19.377942,-48.444623l18.528673,33.969388c0.040441,0.07391 0.101336,0.127367 0.145961,0.197559c0.065543,0.10366 0.139453,0.194305 0.215688,0.291457c0.233816,0.299359 0.498777,0.556883 0.800926,0.765133c0.045555,0.031609 0.068797,0.081348 0.116211,0.111098c0.019988,0.012551 0.042301,0.015805 0.062754,0.027891c0.196629,0.118535 0.409063,0.198023 0.622891,0.278441c0.105984,0.039977 0.205926,0.101336 0.31377,0.130621c0.271004,0.07484 0.552234,0.104125 0.835324,0.116211c0.049738,0.001859 0.098547,0.020453 0.148285,0.020453l0.003719,-0.000465l0.003254,0.000465c0.381637,0 0.761414,-0.081348 1.135148,-0.202672c0.217547,-0.070191 0.436023,-0.140848 0.63823,-0.250551c0,0 0.001859,-0.000465 0.002789,-0.00093c0,0 0.004184,-0.004184 0.006973,-0.005578c0.376523,-0.205461 0.702379,-0.500172 0.995231,-0.835324c0.068332,-0.078094 0.133875,-0.151539 0.19477,-0.234746c0.052527,-0.071586 0.11993,-0.125973 0.168273,-0.202672l43.998392,-69.663811l43.50008,-18.125188c0.003719,-0.001395 0.007438,-0.002789 0.011156,-0.004648l0.026496,-0.011156c0.242648,-0.100871 0.418359,-0.279836 0.627074,-0.423008c0.190121,-0.129691 0.40302,-0.211039 0.571293,-0.379777l0.018594,-0.018594c0.003719,-0.003719 0.007438,-0.007438 0.011156,-0.011156l38.245951,-38.24688l0,20.772938c0,2.055539 1.663211,3.71875 3.71875,3.71875s3.71875,-1.663211 3.71875,-3.71875l0,-29.750001c0,-2.055539 -1.663211,-3.71875 -3.71875,-3.71875z"/>
    </g>
    <g stroke="null" id="svg_11">
     <g stroke="null" id="svg_12">
      <g stroke="null" id="svg_13">
       <path stroke="null" id="svg_14" fill="#5C546A" d="m14.15625,245c-2.055539,0 -3.71875,-1.663211 -3.71875,-3.71875l0,-7.4375c0,-2.055539 1.663211,-3.71875 3.71875,-3.71875s3.71875,1.663211 3.71875,3.71875l0,7.4375c0,2.055539 -1.663211,3.71875 -3.71875,3.71875z"/>
      </g>
     </g>
     <g stroke="null" id="svg_15">
      <g stroke="null" id="svg_16">
       <path stroke="null" id="svg_17" fill="#5C546A" d="m58.781252,245c-2.055539,0 -3.71875,-1.663211 -3.71875,-3.71875l0,-7.4375c0,-2.055539 1.663211,-3.71875 3.71875,-3.71875c2.055539,0 3.71875,1.663211 3.71875,3.71875l0,7.4375c0,2.055539 -1.663211,3.71875 -3.71875,3.71875z"/>
      </g>
     </g>
     <g stroke="null" id="svg_18">
      <g stroke="null" id="svg_19">
       <path stroke="null" id="svg_20" fill="#5C546A" d="m103.406254,245c-2.055539,0 -3.71875,-1.663211 -3.71875,-3.71875l0,-7.4375c0,-2.055539 1.663211,-3.71875 3.71875,-3.71875s3.71875,1.663211 3.71875,3.71875l0,7.4375c0,2.055539 -1.663211,3.71875 -3.71875,3.71875z"/>
      </g>
     </g>
     <g stroke="null" id="svg_21">
      <g stroke="null" id="svg_22">
       <path stroke="null" id="svg_23" fill="#5C546A" d="m148.031256,245c-2.055539,0 -3.71875,-1.663211 -3.71875,-3.71875l0,-7.4375c0,-2.055539 1.663211,-3.71875 3.71875,-3.71875s3.71875,1.663211 3.71875,3.71875l0,7.4375c0,2.055539 -1.663211,3.71875 -3.71875,3.71875z"/>
      </g>
     </g>
     <g stroke="null" id="svg_24">
      <g stroke="null" id="svg_25">
       <path stroke="null" id="svg_26" fill="#5C546A" d="m192.656257,245c-2.055539,0 -3.71875,-1.663211 -3.71875,-3.71875l0,-7.4375c0,-2.055539 1.663211,-3.71875 3.71875,-3.71875c2.055539,0 3.71875,1.663211 3.71875,3.71875l0,7.4375c0,2.055539 -1.663211,3.71875 -3.71875,3.71875z"/>
      </g>
     </g>
     <g stroke="null" id="svg_27">
      <g stroke="null" id="svg_28">
       <path stroke="null" id="svg_29" fill="#5C546A" d="m14.15625,59.062493l-7.4375,0c-2.055539,0 -3.71875,-1.663211 -3.71875,-3.71875c0,-2.055539 1.663211,-3.71875 3.71875,-3.71875l7.4375,0c2.055539,0 3.71875,1.663211 3.71875,3.71875c0,2.055539 -1.663211,3.71875 -3.71875,3.71875z"/>
      </g>
     </g>
     <g stroke="null" id="svg_30">
      <g stroke="null" id="svg_31">
       <path stroke="null" id="svg_32" fill="#5C546A" d="m14.15625,103.687495l-7.4375,0c-2.055539,0 -3.71875,-1.663211 -3.71875,-3.71875c0,-2.055539 1.663211,-3.71875 3.71875,-3.71875l7.4375,0c2.055539,0 3.71875,1.663211 3.71875,3.71875c0,2.055539 -1.663211,3.71875 -3.71875,3.71875z"/>
      </g>
     </g>
     <g stroke="null" id="svg_33">
      <g stroke="null" id="svg_34">
       <path stroke="null" id="svg_35" fill="#5C546A" d="m14.15625,148.312496l-7.4375,0c-2.055539,0 -3.71875,-1.663211 -3.71875,-3.71875s1.663211,-3.71875 3.71875,-3.71875l7.4375,0c2.055539,0 3.71875,1.663211 3.71875,3.71875s-1.663211,3.71875 -3.71875,3.71875z"/>
      </g>
     </g>
     <g stroke="null" id="svg_36">
      <g stroke="null" id="svg_37">
       <path stroke="null" id="svg_38" fill="#5C546A" d="m14.15625,192.937498l-7.4375,0c-2.055539,0 -3.71875,-1.663211 -3.71875,-3.71875s1.663211,-3.71875 3.71875,-3.71875l7.4375,0c2.055539,0 3.71875,1.663211 3.71875,3.71875s-1.663211,3.71875 -3.71875,3.71875z"/>
      </g>
     </g>
     <g stroke="null" id="svg_39">
      <g stroke="null" id="svg_40">
       <path stroke="null" id="svg_41" fill="#5C546A" d="m14.15625,237.5625l-7.4375,0c-2.055539,0 -3.71875,-1.663211 -3.71875,-3.71875s1.663211,-3.71875 3.71875,-3.71875l7.4375,0c2.055539,0 3.71875,1.663211 3.71875,3.71875s-1.663211,3.71875 -3.71875,3.71875z"/>
      </g>
     </g>
     <g stroke="null" id="svg_42">
      <g stroke="null" id="svg_43">
       <path stroke="null" id="svg_44" fill="#5C546A" d="m237.281259,237.5625l-223.125008,0c-2.055539,0 -3.71875,-1.663211 -3.71875,-3.71875l0,-223.125008c0,-2.055539 1.663211,-3.71875 3.71875,-3.71875s3.71875,1.663211 3.71875,3.71875l0,219.406258l219.406258,0c2.055539,0 3.71875,1.663211 3.71875,3.71875s-1.663211,3.71875 -3.71875,3.71875z"/>
      </g>
     </g>
    </g>
    <g stroke="null" id="svg_45">
     <g stroke="null" id="svg_46">
      <g stroke="null" id="svg_47">
       <path stroke="null" id="svg_48" fill="#FF4F19" d="m148.031256,163.187497c-0.965945,0 -1.935609,-0.410457 -2.640313,-1.078438c-0.671699,-0.707957 -1.078438,-1.637645 -1.078438,-2.640313c0,-1.005922 0.406738,-1.971867 1.078438,-2.640313c1.376402,-1.376402 3.8675,-1.376402 5.28016,0c0.668445,0.704703 1.078438,1.634391 1.078438,2.640313c0,0.965945 -0.410457,1.931891 -1.078438,2.640313c-0.707957,0.66798 -1.673902,1.078438 -2.639848,1.078438z"/>
      </g>
     </g>
     <g stroke="null" id="svg_49">
      <g stroke="null" id="svg_50">
       <path stroke="null" id="svg_51" fill="#FF4F19" d="m148.031256,148.312496c-0.965945,0 -1.935609,-0.410457 -2.640313,-1.078438c-0.671699,-0.707957 -1.078438,-1.637645 -1.078438,-2.640313c0,-1.005922 0.406738,-1.935609 1.078438,-2.640313c1.41266,-1.376402 3.8675,-1.376402 5.28016,0c0.668445,0.704703 1.078438,1.634391 1.078438,2.640313c0,1.002203 -0.410457,1.931891 -1.078438,2.640313c-0.707957,0.66798 -1.673902,1.078438 -2.639848,1.078438z"/>
      </g>
     </g>
     <g stroke="null" id="svg_52">
      <g stroke="null" id="svg_53">
       <path stroke="null" id="svg_54" fill="#FF4F19" d="m148.031256,133.437496c-0.965945,0 -1.935609,-0.410457 -2.640313,-1.078438c-0.671699,-0.707957 -1.078438,-1.637645 -1.078438,-2.640313c0,-1.005922 0.406738,-1.935609 1.078438,-2.640313c1.41266,-1.376402 3.8675,-1.376402 5.28016,0c0.668445,0.704703 1.078438,1.674367 1.078438,2.640313c0,1.002203 -0.410457,1.931891 -1.078438,2.640313c-0.707957,0.66798 -1.673902,1.078438 -2.639848,1.078438z"/>
      </g>
     </g>
     <g stroke="null" id="svg_55">
      <g stroke="null" id="svg_56">
       <path stroke="null" id="svg_57" fill="#FF4F19" d="m148.031256,118.562495c-0.965945,0 -1.935609,-0.410457 -2.640313,-1.078438c-0.671699,-0.707957 -1.078438,-1.637645 -1.078438,-2.640313c0,-1.005922 0.406738,-1.935609 1.078438,-2.640313c1.41266,-1.376402 3.8675,-1.376402 5.28016,0c0.668445,0.704703 1.078438,1.674367 1.078438,2.640313c0,1.002203 -0.410457,1.931891 -1.078438,2.640313c-0.707957,0.66798 -1.673902,1.078438 -2.639848,1.078438z"/>
      </g>
     </g>
     <g stroke="null" id="svg_58">
      <g stroke="null" id="svg_59">
       <path stroke="null" id="svg_60" fill="#FF4F19" d="m148.031256,103.687495c-0.965945,0 -1.935609,-0.410457 -2.640313,-1.078438c-0.671699,-0.707957 -1.078438,-1.637645 -1.078438,-2.640313c0,-1.005922 0.406738,-1.935609 1.078438,-2.640313c1.376402,-1.376402 3.903758,-1.376402 5.28016,0c0.668445,0.704703 1.078438,1.674367 1.078438,2.640313c0,0.965945 -0.410457,1.931891 -1.078438,2.640313c-0.707957,0.66798 -1.673902,1.078438 -2.639848,1.078438z"/>
      </g>
     </g>
     <g stroke="null" id="svg_61">
      <g stroke="null" id="svg_62">
       <path stroke="null" id="svg_63" fill="#FF4F19" d="m148.031256,222.687499c-0.965945,0 -1.935609,-0.410457 -2.640313,-1.078438c-0.671699,-0.707957 -1.078438,-1.637645 -1.078438,-2.640313c0,-1.005922 0.406738,-1.935609 1.078438,-2.640313c1.376402,-1.376402 3.903758,-1.376402 5.28016,0c0.668445,0.704703 1.078438,1.674367 1.078438,2.640313s-0.410457,1.931891 -1.078438,2.640313c-0.707957,0.66798 -1.673902,1.078438 -2.639848,1.078438z"/>
      </g>
     </g>
     <g stroke="null" id="svg_64">
      <g stroke="null" id="svg_65">
       <path stroke="null" id="svg_66" fill="#FF4F19" d="m148.031256,207.812499c-0.965945,0 -1.935609,-0.374199 -2.640313,-1.078438c-0.671699,-0.707957 -1.078438,-1.637645 -1.078438,-2.640313c0,-1.005922 0.406738,-1.971867 1.078438,-2.640313c1.376402,-1.376402 3.903758,-1.376402 5.28016,0c0.668445,0.704703 1.078438,1.634391 1.078438,2.640313c0,0.965945 -0.410457,1.931891 -1.078438,2.640313c-0.707957,0.704238 -1.673902,1.078438 -2.639848,1.078438z"/>
      </g>
     </g>
     <g stroke="null" id="svg_67">
      <g stroke="null" id="svg_68">
       <path stroke="null" id="svg_69" fill="#FF4F19" d="m148.031256,192.937498c-0.965945,0 -1.935609,-0.410457 -2.640313,-1.078438c-0.671699,-0.707957 -1.078438,-1.674367 -1.078438,-2.640313c0,-1.005922 0.406738,-1.971867 1.078438,-2.640313c1.376402,-1.376402 3.903758,-1.376402 5.28016,0c0.668445,0.704703 1.078438,1.634391 1.078438,2.640313c0,0.965945 -0.410457,1.931891 -1.078438,2.640313c-0.707957,0.66798 -1.673902,1.078438 -2.639848,1.078438z"/>
      </g>
     </g>
     <g stroke="null" id="svg_70">
      <g stroke="null" id="svg_71">
       <path stroke="null" id="svg_72" fill="#FF4F19" d="m148.031256,178.062497c-0.965945,0 -1.935609,-0.410457 -2.640313,-1.078438c-0.671699,-0.707957 -1.078438,-1.674367 -1.078438,-2.640313c0,-1.005922 0.406738,-1.971867 1.078438,-2.640313c1.376402,-1.376402 3.8675,-1.376402 5.28016,0c0.668445,0.704703 1.078438,1.634391 1.078438,2.640313c0,0.965945 -0.410457,1.931891 -1.078438,2.640313c-0.707957,0.66798 -1.673902,1.078438 -2.639848,1.078438z"/>
      </g>
     </g>
    </g>
    <g stroke="null" id="svg_73">
     <g stroke="null" id="svg_74">
      <g stroke="null" id="svg_75">
       <path stroke="null" id="svg_76" fill="#DF3717" d="m192.656257,163.187497c-1.005922,0 -1.935609,-0.410457 -2.640313,-1.078438c-0.671699,-0.707957 -1.078438,-1.637645 -1.078438,-2.640313c0,-1.005922 0.406738,-1.971867 1.078438,-2.640313c1.336426,-1.340145 3.903758,-1.376402 5.28016,0c0.668445,0.704703 1.078438,1.634391 1.078438,2.640313c0,1.002203 -0.410457,1.931891 -1.078438,2.640313c-0.707957,0.66798 -1.637645,1.078438 -2.639848,1.078438z"/>
      </g>
     </g>
     <g stroke="null" id="svg_77">
      <g stroke="null" id="svg_78">
       <path stroke="null" id="svg_79" fill="#DF3717" d="m192.656257,148.312496c-0.965945,0 -1.935609,-0.410457 -2.640313,-1.078438c-0.671699,-0.707957 -1.078438,-1.674367 -1.078438,-2.640313s0.406738,-1.935609 1.078438,-2.640313c1.376402,-1.376402 3.903758,-1.376402 5.28016,0c0.668445,0.704703 1.078438,1.674367 1.078438,2.640313s-0.410457,1.931891 -1.078438,2.640313c-0.707957,0.66798 -1.673902,1.078438 -2.639848,1.078438z"/>
      </g>
     </g>
     <g stroke="null" id="svg_80">
      <g stroke="null" id="svg_81">
       <path stroke="null" id="svg_82" fill="#DF3717" d="m192.656257,133.437496c-1.005922,0 -1.935609,-0.410457 -2.640313,-1.078438c-0.671699,-0.707957 -1.078438,-1.637645 -1.078438,-2.640313c0,-1.005922 0.406738,-1.935609 1.078438,-2.640313c1.376402,-1.376402 3.903758,-1.376402 5.28016,0c0.668445,0.704703 1.078438,1.634391 1.078438,2.640313c0,1.002203 -0.410457,1.931891 -1.078438,2.640313c-0.707957,0.66798 -1.637645,1.078438 -2.639848,1.078438z"/>
      </g>
     </g>
     <g stroke="null" id="svg_83">
      <g stroke="null" id="svg_84">
       <path stroke="null" id="svg_85" fill="#DF3717" d="m192.656257,118.562495c-0.965945,0 -1.935609,-0.410457 -2.640313,-1.078438c-0.671699,-0.707957 -1.078438,-1.674367 -1.078438,-2.640313c0,-0.965945 0.406738,-1.935609 1.078438,-2.640313c1.376402,-1.376402 3.903758,-1.376402 5.28016,0c0.668445,0.704703 1.078438,1.674367 1.078438,2.640313c0,0.965945 -0.410457,1.931891 -1.078438,2.640313c-0.707957,0.66798 -1.673902,1.078438 -2.639848,1.078438z"/>
      </g>
     </g>
     <g stroke="null" id="svg_86">
      <g stroke="null" id="svg_87">
       <path stroke="null" id="svg_88" fill="#DF3717" d="m192.656257,103.687495c-1.005922,0 -1.935609,-0.410457 -2.640313,-1.078438c-0.671699,-0.707957 -1.078438,-1.637645 -1.078438,-2.640313c0,-1.005922 0.406738,-1.935609 1.078438,-2.640313c1.376402,-1.376402 3.903758,-1.376402 5.28016,0c0.668445,0.704703 1.078438,1.634391 1.078438,2.640313c0,1.002203 -0.410457,1.931891 -1.078438,2.640313c-0.707957,0.66798 -1.637645,1.078438 -2.639848,1.078438z"/>
      </g>
     </g>
     <g stroke="null" id="svg_89">
      <g stroke="null" id="svg_90">
       <path stroke="null" id="svg_91" fill="#DF3717" d="m192.656257,88.812494c-0.965945,0 -1.935609,-0.410457 -2.640313,-1.078438c-0.671699,-0.707957 -1.078438,-1.674367 -1.078438,-2.640313s0.406738,-1.935609 1.078438,-2.640313c1.376402,-1.376402 3.903758,-1.376402 5.28016,0c0.668445,0.704703 1.078438,1.674367 1.078438,2.640313s-0.410457,1.931891 -1.078438,2.640313c-0.707957,0.66798 -1.673902,1.078438 -2.639848,1.078438z"/>
      </g>
     </g>
     <g stroke="null" id="svg_92">
      <g stroke="null" id="svg_93">
       <path stroke="null" id="svg_94" fill="#DF3717" d="m192.656257,73.937493c-0.965945,0 -1.935609,-0.410457 -2.640313,-1.078438c-0.671699,-0.707957 -1.078438,-1.674367 -1.078438,-2.640313c0,-1.005922 0.406738,-1.935609 1.078438,-2.640313c1.376402,-1.376402 3.903758,-1.376402 5.28016,0c0.668445,0.704703 1.078438,1.634391 1.078438,2.640313c0,0.965945 -0.410457,1.931891 -1.078438,2.640313c-0.707957,0.66798 -1.673902,1.078438 -2.639848,1.078438z"/>
      </g>
     </g>
     <g stroke="null" id="svg_95">
      <g stroke="null" id="svg_96">
       <path stroke="null" id="svg_97" fill="#DF3717" d="m192.656257,222.687499c-1.005922,0 -1.935609,-0.410457 -2.640313,-1.114695c-0.671699,-0.671699 -1.078438,-1.601387 -1.078438,-2.604055c0,-0.965945 0.406738,-1.935609 1.078438,-2.640313c1.376402,-1.376402 3.903758,-1.376402 5.28016,0c0.668445,0.704703 1.078438,1.674367 1.078438,2.640313c0,1.002203 -0.410457,1.931891 -1.114695,2.640313c-0.671699,0.66798 -1.601387,1.078438 -2.60359,1.078438z"/>
      </g>
     </g>
     <g stroke="null" id="svg_98">
      <g stroke="null" id="svg_99">
       <path stroke="null" id="svg_100" fill="#DF3717" d="m192.656257,207.812499c-0.965945,0 -1.935609,-0.410457 -2.640313,-1.078438c-0.671699,-0.707957 -1.078438,-1.674367 -1.078438,-2.640313c0,-1.005922 0.406738,-1.935609 1.078438,-2.640313c1.376402,-1.376402 3.903758,-1.376402 5.28016,0c0.668445,0.704703 1.078438,1.634391 1.078438,2.640313c0,0.965945 -0.410457,1.931891 -1.078438,2.640313c-0.707957,0.66798 -1.673902,1.078438 -2.639848,1.078438z"/>
      </g>
     </g>
     <g stroke="null" id="svg_101">
      <g stroke="null" id="svg_102">
       <path stroke="null" id="svg_103" fill="#DF3717" d="m192.656257,192.937498c-1.005922,0 -1.935609,-0.410457 -2.640313,-1.078438c-0.671699,-0.707957 -1.078438,-1.637645 -1.078438,-2.640313c0,-1.005922 0.406738,-1.935609 1.078438,-2.640313c1.376402,-1.376402 3.903758,-1.376402 5.28016,0c0.668445,0.704703 1.078438,1.674367 1.078438,2.640313c0,1.002203 -0.410457,1.931891 -1.078438,2.640313c-0.707957,0.66798 -1.637645,1.078438 -2.639848,1.078438z"/>
      </g>
     </g>
     <g stroke="null" id="svg_104">
      <g stroke="null" id="svg_105">
       <path stroke="null" id="svg_106" fill="#DF3717" d="m192.656257,178.062497c-0.965945,0 -1.935609,-0.410457 -2.640313,-1.078438c-0.671699,-0.707957 -1.078438,-1.674367 -1.078438,-2.640313c0,-1.005922 0.406738,-1.971867 1.078438,-2.640313c1.376402,-1.376402 3.903758,-1.376402 5.28016,0.036258c0.668445,0.668445 1.078438,1.598133 1.078438,2.604055c0,0.965945 -0.410457,1.931891 -1.078438,2.640313c-0.707957,0.66798 -1.673902,1.078438 -2.639848,1.078438z"/>
      </g>
     </g>
    </g>
    <g stroke="null" id="svg_107">
     <g stroke="null" id="svg_108">
      <g stroke="null" id="svg_109">
       <path stroke="null" id="svg_110" fill="#BF3A21" d="m103.406254,163.187497c-0.965945,0 -1.935609,-0.410457 -2.640313,-1.078438c-0.671699,-0.707957 -1.078438,-1.674367 -1.078438,-2.640313s0.406738,-1.935609 1.078438,-2.640313c1.376402,-1.376402 3.903758,-1.376402 5.28016,0c0.668445,0.704703 1.078438,1.674367 1.078438,2.640313s-0.410457,1.931891 -1.078438,2.640313c-0.707957,0.66798 -1.673902,1.078438 -2.639848,1.078438z"/>
      </g>
     </g>
     <g stroke="null" id="svg_111">
      <g stroke="null" id="svg_112">
       <path stroke="null" id="svg_113" fill="#BF3A21" d="m103.406254,222.687499c-0.965945,0 -1.935609,-0.410457 -2.640313,-1.078438c-0.671699,-0.707957 -1.078438,-1.674367 -1.078438,-2.640313c0,-1.005922 0.406738,-1.935609 1.078438,-2.640313c1.41266,-1.376402 3.8675,-1.376402 5.28016,0c0.668445,0.704703 1.078438,1.674367 1.078438,2.640313s-0.410457,1.931891 -1.078438,2.640313c-0.707957,0.66798 -1.673902,1.078438 -2.639848,1.078438z"/>
      </g>
     </g>
     <g stroke="null" id="svg_114">
      <g stroke="null" id="svg_115">
       <path stroke="null" id="svg_116" fill="#BF3A21" d="m103.406254,207.812499c-0.965945,0 -1.935609,-0.410457 -2.640313,-1.078438c-0.671699,-0.707957 -1.078438,-1.674367 -1.078438,-2.640313s0.406738,-1.935609 1.078438,-2.640313c1.41266,-1.376402 3.8675,-1.376402 5.28016,0c0.668445,0.704703 1.078438,1.674367 1.078438,2.640313s-0.410457,1.931891 -1.078438,2.640313c-0.707957,0.66798 -1.673902,1.078438 -2.639848,1.078438z"/>
      </g>
     </g>
     <g stroke="null" id="svg_117">
      <g stroke="null" id="svg_118">
       <path stroke="null" id="svg_119" fill="#BF3A21" d="m103.406254,192.937498c-0.965945,0 -1.935609,-0.410457 -2.640313,-1.078438c-0.671699,-0.707957 -1.078438,-1.637645 -1.078438,-2.640313c0,-1.005922 0.406738,-1.935609 1.078438,-2.640313c1.41266,-1.376402 3.8675,-1.376402 5.28016,0c0.668445,0.704703 1.078438,1.674367 1.078438,2.640313s-0.410457,1.931891 -1.078438,2.640313c-0.707957,0.66798 -1.673902,1.078438 -2.639848,1.078438z"/>
      </g>
     </g>
     <g stroke="null" id="svg_120">
      <g stroke="null" id="svg_121">
       <path stroke="null" id="svg_122" fill="#BF3A21" d="m103.406254,178.062497c-0.965945,0 -1.935609,-0.410457 -2.640313,-1.078438c-0.671699,-0.707957 -1.078438,-1.674367 -1.078438,-2.640313s0.406738,-1.935609 1.078438,-2.640313c1.376402,-1.376402 3.903758,-1.376402 5.28016,0c0.668445,0.704703 1.078438,1.674367 1.078438,2.640313s-0.410457,1.931891 -1.078438,2.640313c-0.707957,0.66798 -1.673902,1.078438 -2.639848,1.078438z"/>
      </g>
     </g>
    </g>
    <g stroke="null" id="svg_123">
     <g stroke="null" id="svg_124">
      <g stroke="null" id="svg_125">
       <path stroke="null" id="svg_126" fill="#7200DA" d="m58.781252,222.687499c-0.965945,0 -1.935609,-0.410457 -2.640313,-1.078438c-0.671699,-0.707957 -1.078438,-1.674367 -1.078438,-2.640313c0,-1.005922 0.406738,-1.935609 1.078438,-2.640313c1.376402,-1.376402 3.8675,-1.376402 5.28016,0c0.668445,0.704703 1.078438,1.634391 1.078438,2.640313c0,0.965945 -0.410457,1.931891 -1.078438,2.640313c-0.707957,0.66798 -1.673902,1.078438 -2.639848,1.078438z"/>
      </g>
     </g>
     <g stroke="null" id="svg_127">
      <g stroke="null" id="svg_128">
       <path stroke="null" id="svg_129" fill="#7200DA" d="m58.781252,207.812499c-0.965945,0 -1.935609,-0.410457 -2.640313,-1.078438c-0.671699,-0.707957 -1.078438,-1.674367 -1.078438,-2.640313s0.406738,-1.935609 1.078438,-2.640313c1.376402,-1.376402 3.903758,-1.376402 5.28016,0c0.668445,0.704703 1.078438,1.674367 1.078438,2.640313c0,1.002203 -0.410457,1.931891 -1.078438,2.640313c-0.707957,0.66798 -1.673902,1.078438 -2.639848,1.078438z"/>
      </g>
     </g>
     <g stroke="null" id="svg_130">
      <g stroke="null" id="svg_131">
       <path stroke="null" id="svg_132" fill="#7200DA" d="m58.781252,192.937498c-0.965945,0 -1.935609,-0.410457 -2.640313,-1.078438c-0.671699,-0.707957 -1.078438,-1.637645 -1.078438,-2.640313c0,-0.965945 0.406738,-1.935609 1.078438,-2.640313c1.376402,-1.376402 3.8675,-1.376402 5.28016,0c0.668445,0.704703 1.078438,1.634391 1.078438,2.640313c0,1.002203 -0.410457,1.931891 -1.078438,2.640313c-0.707957,0.66798 -1.673902,1.078438 -2.639848,1.078438z"/>
      </g>
     </g>
     <g stroke="null" id="svg_133">
      <g stroke="null" id="svg_134">
       <path stroke="null" id="svg_135" fill="#7200DA" d="m58.781252,178.062497c-0.965945,0 -1.935609,-0.410457 -2.640313,-1.078438c-0.671699,-0.707957 -1.078438,-1.674367 -1.078438,-2.640313c0,-1.005922 0.406738,-1.935609 1.078438,-2.640313c1.376402,-1.376402 3.8675,-1.376402 5.28016,0c0.668445,0.704703 1.078438,1.634391 1.078438,2.640313c0,0.965945 -0.410457,1.931891 -1.078438,2.640313c-0.707957,0.66798 -1.673902,1.078438 -2.639848,1.078438z"/>
      </g>
     </g>
    </g>
   </g>
   <text xml:space="preserve" text-anchor="start" font-family="'League Gothic', sans-serif" font-size="172" id="svg_137" y="187.375" x="278" stroke-width="0" stroke="#000" fill="#00b9f1">SISTA</text>
  </g>
 </g>
</svg>