<svg width="525" height="424" viewbox="0 0 525 424" xmlns="http://www.w3.org/2000/svg">
  <defs>
    <linearGradient x1="50%" y1="100%" x2="50%" y2="0%" id="a">
      <stop stop-color="gray" stop-opacity=".3" offset="0%"/>
      <stop stop-color="gray" stop-opacity=".1" offset="54%"/>
      <stop stop-color="gray" stop-opacity=".1" offset="100%"/>
    </linearGradient>
    <linearGradient x1="50%" y1="100%" x2="50%" y2="0%" id="b">
      <stop stop-color="gray" stop-opacity=".3" offset="0%"/>
      <stop stop-color="gray" stop-opacity=".1" offset="54%"/>
      <stop stop-color="gray" stop-opacity=".1" offset="100%"/>
    </linearGradient>
  </defs>
  <g fill="none" fill-rule="evenodd">
    <ellipse fill="#6C63FF" opacity=".1" cx="243.5" cy="273" rx="127" ry="6"/>
    <path d="M239 249a115.6 115.6 0 1 1 115.5-115.5c0 63.7-51.8 115.5-115.5 115.5zm0-229.9a114.5 114.5 0 1 0 114.4 114.4c0-63-51.3-114.4-114.4-114.4z" fill="#FFF" fill-rule="nonzero"/>
    <path d="M240 223a89.6 89.6 0 0 1 0-179 89.6 89.6 0 0 1 0 179zm0-177.9a88.5 88.5 0 0 0 0 176.8A88.5 88.5 0 0 0 240 45z" fill="#FFF" fill-rule="nonzero"/>
    <path d="M239.5 195a62 62 0 1 1 0-124 62 62 0 0 1 0 124zm0-122.9a60.9 60.9 0 1 0 0 121.8 60.9 60.9 0 0 0 0-121.8z" fill="#FFF" fill-rule="nonzero"/>
    <ellipse fill="#6C63FF" opacity=".1" cx="517" cy="201" rx="7.5" ry="3"/>
    <ellipse fill="#6C63FF" opacity=".1" cx="69" cy="340.5" rx="47.5" ry="7.5"/>
    <g opacity=".1" fill="#000">
      <path d="M151.6 126.4H8a7.5 7.5 0 0 0-7.5 7.5v91c0 4 3.4 7.4 7.5 7.4h112.7s2.9 15.6-6.7 17.2c0 0 21.4 1.6 17.7-17.2h19.9c4.1 0 7.5-3.3 7.5-7.5V134c0-4.1-3.4-7.5-7.5-7.5z"/>
      <g opacity=".2" transform="translate(21.2 150.1)">
        <rect x=".5" y=".4" width="116.3" height="7.1" rx="3.6"/>
        <rect x=".5" y="32.2" width="116.3" height="7.1" rx="3.6"/>
        <rect x=".5" y="48" width="97.5" height="7.1" rx="3.6"/>
        <rect x=".5" y="16.3" width="50.4" height="7.1" rx="3.6"/>
      </g>
    </g>
    <path d="M153 125H10a7.5 7.5 0 0 0-7.5 7.5v90.8c0 4.1 3.4 7.5 7.5 7.5h112.2s2.9 15.5-6.7 17.2c0 0 21.4 1.5 17.7-17.2H153c4.2 0 7.5-3.4 7.5-7.5v-90.8c0-4.1-3.3-7.5-7.5-7.5z" fill="#FFF"/>
    <g opacity=".2" transform="translate(23.5 149)" fill="#6C63FF">
      <rect y=".3" width="115.8" height="7.2" rx="3.6"/>
      <rect y="32.3" width="115.8" height="7.2" rx="3.6"/>
      <rect y="48.3" width="97.1" height="7.2" rx="3.6"/>
      <rect y="16.3" width="50.2" height="7.2" rx="3.6"/>
    </g>
    <path d="M99.8 123.3l-8.1 17s-1.2 3.3-2 3.8c-.8.6-4.2 10.7-4.2 10.7L77 168.1l-.6.9-3.4-1-2.4-8.8.1-2.5v-.3s5.4-5.6 6.6-6c0 0 1 .1 2.7-4.2 1.8-4.3 3.5-5.2 3.5-5.2l.9-3.2 10-15.8s8.5-12 10.8-6.6c2.3 5.3-5.3 8-5.3 8zM66.5 243.9c0 .3-.1.5-.3.8-1 1.3-6.2 28.7-6.2 28.7.4 1.8-.7 5.5-1.5 7.2-.8 1.7-2.5 10.4-2.5 10.4s-.4 18.7-1.5 21.6c-1.1 3 .4 9.2.4 9.2a14 14 0 0 0 2.6 7.5l.3.3.5.8c.3.5.7 1 1.2 1.4l.2.2c1.5 1 3 1.6 4.8 2h.2l1 .2.5 2.3-4.5.9-8.5.6s-10.1.7-7.8-3.7a7 7 0 0 0 .6-1.6c1.4-4.3.4-9.5.4-9.5l-2-15C41.4 294 47 278.3 47 278.3s-.5-1.2.6-4.4 0-10.1 0-10.1-.5-9-1.3-13.4a26.7 26.7 0 0 1 0-9l19.3-2.5s1 3 .9 4.9z" fill="#FFD2C6"/>
    <path d="M65.5 336.5l-4.4.9-8.5.6s-10 .7-7.8-3.7a6.9 6.9 0 0 0 .7-1.6c1.7 0 3.4.4 5 1 2.9 1.1 5-1.7 5-1.7l1.4-2.6.2-.4.6.7c.3.7.8 1.2 1.4 1.7l-.3.4-1.3 2.8 4 .6c1 .2 2-.3 2.3-1.2h.2l1 .2.5 2.3z" fill="#000" opacity=".1"/>
    <path d="M70.4 339.2c-.3 1.6-9.7 2-9.7 2s-5.2-.4-6.7.8c-1.5 1.3-5.8 1-6 1-.1 0-2.4-.1-3.3-4.3-.8-4 1.2-4.8 1.3-4.8 1.8 0 3.6.4 5.3 1 2.9 1.2 5-1.8 5-1.8L58 330l.6.8c.3.7.8 1.2 1.4 1.7l-1.6 3.4 4 .6c2 .3 2.4-1.3 2.5-2v-.2l3.2 1c1.7.4 2.8 2.2 2.4 4z" fill="#626696"/>
    <path d="M88.1 265.2l-.4 4.8c.8 3-1.2 9.9-1.2 9.9l-1 3.9c.4 5-2.7 17.4-2.7 17.4s-2.2 11.5-3.3 16.4a13.9 13.9 0 0 0 .7 8.5v.3l.2.4a6.1 6.1 0 0 0 1.7 2.5c1 1 2.2 1.7 3.5 2.2l.6.2a16.4 16.4 0 0 0 2 .7l-.5 2.6-5.9-1.5-7.8-2.6-3.9-2.3.1-.6.2-.7c.6-3.4 2.1-13.2 1.4-20.3a72 72 0 0 1 3.5-24c.6-1.7.8-3.5.7-5.2-1.4-2.2-1.8-10.7-1.8-10.7s-2.6-5.5-4.8-11.4a30.3 30.3 0 0 1-1.9-10.2s17.8-16.5 19.7-.5l.2 1.5c1.7 14.7 1 17.4.7 18.7z" fill="#FFD2C6"/>
    <path d="M88.5 331.3l-.4 2.7-5.9-1.5-7.8-2.7-3.9-2.2.1-.7.1-.7h.6c1.1-.1 2.3 0 3.3.4 1.3.5 3 1.1 3.3.9a4 4 0 0 1 1.9-.4l.8-1.8.1-.3a6.1 6.1 0 0 0 1.7 2.6v1.6c.8.5 1.8 1 2.8 1.3h.8l.5.2a16.3 16.3 0 0 0 2 .6z" fill="#000" opacity=".1"/>
    <path d="M85.4 335.8c-1.7-.4-5.6-1.2-6.3-.6-.6.6-6.2 0-6.2 0-1.2 0-2.2-.6-2.8-1.6-1.2-1.8-.3-7.4-.3-7.4H71c1.2-.2 2.4 0 3.4.4 1.3.4 3 1 3.4.7.6-.2 1.2-.3 1.9-.3l1-2a5.8 5.8 0 0 0 1.7 2.4l-.1 1.5c.9.6 1.8 1 2.8 1.3.5.2 1.1 0 1.4-.4l.1-.2 2.4.7c1.9 0 3.7.7 4.5 3.2.9 2.5-6.4 2.8-8 2.3z" fill="#626696"/>
    <path d="M65.5 245.6l-1 .3c-.8.3-1.6.5-2.5.6-5.2.9-13.8.4-16.5.2 0-1.3.1-2.6.3-3.8l18.8-2.9s1 3.6.9 5.6z" fill="#000" opacity=".1"/>
    <path d="M83.5 240.4s-7 1.1-12.9 2.4c-1.9.4-3.7.8-5 1.3l-2.5.5c-6.4.9-17.8 0-17.8 0-3.1-10 3.8-22.8 3.8-22.8-.1-1 1.5-4 1.5-4v-.2l1-3.6h26.3l.3 1.5.7 3.2 4.1 19.5.5 2.2z" fill="#626696"/>
    <path d="M87.5 245.7h-.2l-3 1.4c-3.3 1.6-13 1.9-16.5 1.9-.2-1.4-.3-3-.3-4.4 0 0 17.9-16.8 19.8-.5l.2 1.6z" fill="#000" opacity=".1"/>
    <path d="M87.5 244.6l-.6.2-3.1 1.4a64.4 64.4 0 0 1-16.9 1.8h-.8c-1.5 0-3-1.4-3-1.8l-.3-2-.3-1.3s-6.7-2.9-10.1-5.2c-2.6-1.7-2-14-1.4-20.2l.3-3.5 26.4 1.5 3.8.2 2 .5.6.1s1.6 11 2.3 11.9c.7.9.3 4 .2 5.7 0 .8-.1 1.5-.3 2.3 0 0 1.1 3 .8 4.7 0 1.3 0 2.5.4 3.7z" fill="#626696"/>
    <circle fill="#FFD2C6" cx="59.5" cy="142" r="11"/>
    <path d="M53.3 146s.7 10.1-1.3 12.4c-2.1 2.3-7.5 6.7-7.5 6.7l1.7 6.8 9.3 1.1 11-11.6-2.5-3s-1.9-6.5-.3-9.7c1.6-3.2-10.4-2.7-10.4-2.7z" fill="#FFD2C6"/>
    <path d="M76.5 168.1l-.6.9-3.8-1-2.6-8.5.2-2.5.7-1s4.1 0 4 3.4a26 26 0 0 0 2.1 8.7zM84.5 217.7s-2.7.6-5.8 1c-3 .4-6.6.6-8-.3-2.5-1.4-15.7-1-19.5-.9h-.7l1-3.5h26.2l.4 1.5 3.7.2 2.1.5.6 1.5z" fill="#000" opacity=".1"/>
    <path d="M71.3 156s3.7 0 3.5 3.5c-.2 3.4 2 9.2 2 9.2l-.9 2s-1.1 4.8-.2 6c.9 1.1 4.2 1.1 2.3 10.9 0 0-.4 7.3.6 9.7 1 2.4 1 8 2.4 10.4 1.5 2.4 3.5 8 3.5 8s-10.7 2.4-13.5.7c-2.8-1.7-20-.8-20-.8v-3.3a3 3 0 0 1 .4-2.2c.6-.8 1.5-2.2 1-3.4-.5-1.2 1.3-3 .4-4.8-1-1.8-2-2.2-1.8-3.2.2-1-.4-2.3-1-3.2-.7-.8-5.1-9.8-5.1-9.8l-.8-4.2s-5.7-4.4-5.6-6.4c.1-2 2.2-4.9 2.2-4.9l5.5-5.5s3 3.4 6 2.2c3-1.2 9.3-7 9.3-7s2.3-1.2 2.5-2.1c.1-1 1.5-.1 1.5-.1s2-1.2 2.5-.8a7 7 0 0 0 2.2.8l1.1-1.7z" fill="#FFCDE5"/>
    <path d="M38.8 175l-1.9 1.4s-1.8 3.3-2.2 9.2c-.5 5.9-2.3 14.2-2.3 14.2l-3.6 6.4s-5.8 12.2-6.6 15.4c-.7 3.3-4.2 8.8-4.2 8.8s-11.8 10.5-3.6 12.4c8.2 1.8 8.5-8.4 8.5-8.4s2-2.1 2.2-3.6c.3-1.4 10.8-19.7 10.8-19.7s3.6-5 2.9-7.6c0 0 4.7-11 4.7-13.9a49 49 0 0 0-.8-6.9l.8-5.8-4.7-1.9z" fill="#FFD2C6"/>
    <path d="M63.5 197s-8.2 4.7-9.8 5l7-1 2.8-4zM69.5 200s-10.4 4.2-15 3.4c0 0 11.4 2.6 15-3.4z" fill="#000" opacity=".1"/>
    <path d="M70.5 202s-9.5 6.3-15 5.3c0 0 13 2.7 15 1.3l-5.8-1.7s6.4-3.7 5.8-4.9zM59.7 123.2c-2.9-.5-6.1-.2-8.4 1.6-1.8 1.3-3 3.3-4.9 4.3-1 .4-2 .8-3.1 1a8.8 8.8 0 0 0-5.6 9.5c.4 1.7 1.2 3.2 1.5 4.8.7 3 .1 6-.6 8.9-2.2 8-5.4 15.8-9.6 23-.4.4-.5 1-.5 1.5.1.4.3.7.6 1 4 4.5 10.4 6 16.5 6.2 2.2 0 4.6 0 6.6-1a9.8 9.8 0 0 0 3.2-3c2-2.7 3.1-6.1 3-9.6-.2-2.8-1.2-5.6-.5-8.3l.5-1c.7-.7 1.8-.5 2.7-.6 2.5-.3 4.2-2.9 4.5-5.3.3-2.5-.4-5-.4-7.4 0-3.3 1-6.4 3-9 .9-1.2 2-2.3 2.2-3.7.4-1.8-.7-3-1.6-4.5-1.4-2.1-2-4.7-4.2-6.3-1.5-1-3.1-1.7-4.9-2z" fill="#000" opacity=".1"/>
    <path d="M59.7 122.2c-2.9-.5-6.1-.2-8.5 1.6-1.7 1.3-2.8 3.3-4.8 4.3-1 .4-2 .8-3.1 1a8.8 8.8 0 0 0-5.6 9.5c.3 1.7 1.1 3.2 1.5 4.9.7 2.9.1 6-.7 8.8-2 8-5.3 15.8-9.5 23-.4.4-.5 1-.5 1.5.1.4.3.7.6 1 4 4.5 10.4 6 16.5 6.2 2.3 0 4.6 0 6.6-1a9.8 9.8 0 0 0 3.2-3c2-2.7 3.1-6.1 3-9.6-.2-2.8-1.2-5.6-.5-8.3l.5-1c.7-.7 1.8-.5 2.7-.6 2.6-.3 4.2-2.9 4.5-5.3.3-2.5-.3-5-.4-7.4 0-3.2 1-6.4 3-9 .9-1.2 2-2.3 2.2-3.7.4-1.8-.7-3-1.6-4.5-1.4-2.1-2-4.7-4.2-6.3-1.5-1-3.1-1.7-4.9-2z" fill="#985C7E"/>
    <path d="M54.5 227s2.3 10.2 6 13l-6-13z" fill="#000" opacity=".1"/>
    <g opacity=".1" fill="#000">
      <path d="M37.8 140.3zM68.7 131.5v1c-.3 1.4-1.3 2.5-2.2 3.6-2 2.7-3 6-3 9.2 0 2.5.7 5 .4 7.5-.3 2.5-1.9 5-4.4 5.3-.9.2-2 0-2.6.6-.3.3-.5.7-.5 1-.7 2.8.2 5.6.4 8.5.2 3.5-.9 7-3 9.8a9.8 9.8 0 0 1-3.1 2.8c-2 1-4.2 1.2-6.5 1.1-5.9-.2-12.1-1.7-16-6-.2.2-.2.5-.2.8.1.4.3.7.6 1 4 4.5 10.3 6 16.3 6.2 2.2.1 4.6 0 6.5-1a9.8 9.8 0 0 0 3.1-3c2.1-2.7 3.1-6.2 3-9.7-.2-2.8-1.2-5.7-.5-8.4.1-.4.3-.8.6-1 .6-.7 1.7-.5 2.6-.6 2.5-.3 4-3 4.4-5.4.3-2.5-.3-5-.4-7.5 0-3.2 1-6.5 3-9.1.8-1.2 1.9-2.3 2.2-3.7.1-1 0-2.1-.7-3z"/>
    </g>
    <path d="M261 403s-20.8-1.2-18.3 13.3c0 0-.5 2.5 1.9 3.7 0 0 0-1 2-.7.8.1 1.6.2 2.4.1 1 0 2-.5 2.7-1.1 0 0 5.9-2.4 8.2-12 0 0 1.6-2 1.6-2.5l-3.5 1.4s1.2 2.6.2 4.7c0 0 0-4.6-.8-4.5l-1.8 1s2 4.3.5 7.5c0 0 .6-5.4-1.1-7.3l-2.5 1.5s2.4 4.5.8 8.2c0 0 .4-5.7-1.3-7.9l-2.3 1.8s2.3 4.4 1 7.5c0 0-.3-6.6-1.5-7 0 0-2 1.6-2.2 2.3 0 0 1.5 3.3.6 5 0 0-.6-4.4-1.1-4.4 0 0-2 2.9-2.2 4.9.1-1.9.7-3.7 1.7-5.2-1.1.2-2.2.7-3 1.5 0 0 .3-2 3.5-2.2 0 0 1.6-2.2 2-2.4 0 0-3.1-.2-5 .6 0 0 1.6-2 5.6-1l2.2-1.9s-4.1-.5-6 0c0 0 2.1-1.6 6.6-.4l2.4-1.4s-3.5-.8-5.6-.5c0 0 2.2-1.2 6.3.1l1.7-.8-3.3-.6c-.8 0-.8-.2-.8-.2a9 9 0 0 1 4.9.5s3.6-1.3 3.6-1.6z" fill="#6C63FF"/>
    <ellipse fill="#6C63FF" opacity=".1" cx="246.5" cy="421" rx="15" ry="3"/>
    <path d="M428 385s-20.7-1.2-18.3 13.3c0 0-.5 2.5 1.8 3.7 0 0 0-1 2.2-.7l2.3.1c1 0 2-.5 2.7-1.1 0 0 5.9-2.4 8.2-12 0 0 1.6-2 1.6-2.6l-3.5 1.6s1.2 2.5.2 4.6c0 0-.1-4.5-.8-4.4l-1.8.8s2 4.4.5 7.6c0 0 .6-5.4-1.1-7.2l-2.5 1.4s2.4 4.5.8 8.2c0 0 .4-5.7-1.3-7.9l-2.3 1.8s2.3 4.4.9 7.5c0 0-.2-6.6-1.4-7.1 0 0-2 1.7-2.2 2.4 0 0 1.5 3.3.6 5 0 0-.6-4.4-1.1-4.4 0 0-2 2.9-2.2 4.9.1-1.9.7-3.7 1.7-5.2a6 6 0 0 0-3 1.5s.3-2 3.5-2.2c0 0 1.6-2.3 2-2.4 0 0-3.1-.2-5 .6 0 0 1.6-2 5.6-1l2.2-1.9s-4.2-.5-6 .1c0 0 2.1-1.7 6.6-.5l2.4-1.4s-3.5-.8-5.7-.5c0 0 2.3-1.2 6.4.1l1.7-.7s-2.6-.6-3.3-.6c-.8-.1-.8-.3-.8-.3a9 9 0 0 1 4.8.5s3.7-1.3 3.7-1.6z" fill="#6C63FF"/>
    <ellipse fill="#6C63FF" opacity=".1" cx="413.5" cy="404" rx="15" ry="3"/>
    <ellipse fill="#6C63FF" opacity=".1" cx="444" cy="220" rx="43.5" ry="7"/>
    <path d="M494.7 79.2c1.8-6 0-11.9 0-11.9v-5.6s2-11-7-18l-6-5.3s-3.3-2.8-4.3-3l-.5-.1-.2-.1a18 18 0 0 1-1.3-2.8c.8.1 1.6-.1 2.1-.7l.5-.8c.4-.8.4-1.8.7-2.6a6 6 0 0 1 1.1-1.8l-.1.3c.8-1 2-2 2.7-3l.4-.8v.2c1-1.8 1.4-4 1.7-6v-2.1c-.1-.5-.3-1-.6-1.4-1.3-2.7-1.3-6-3.3-8.2-1.6-1.6-4-2-6.2-2.4-2.2-.2-4.5-.4-6.4-1.6a7 7 0 0 0-1.8-1c-.7-.2-1.4.1-1.7.7 0 .2-.1.3-.3.5h-.6l-3-.8V1.5c.2 0 .3 0 .4.2l-.5.7c-1 0-1.8-.2-2.7-.5V2c0 .9.9 1.4 1.2 2.2v1c-.2.4-.3.7-.6 1-1 1-2.4.7-3.6 1.4-.2 0-.4.3-.4.5v.3s0 .2.2.3l1.1.7-.3.3a13.3 13.3 0 0 0 4.5 21.7l.2.7v.4l-4 1.6c-1.2 0-2.3-.7-2.9-1.8-.9-2-4.2 0-4.2 0s-10-.7-13.7 1.1c0 0-6-2.5-6.8-2.7-.8-.1-2-.8-2.7-.7-.6.2-1.3-1-1.7-1-.5.2-.6-.8-2-1.1-1.3-.4-1.8 0-3.3-1.5C417.3 25 405 19 405 19l-5.6-4.5-5.9-4.7v.2l-.2-.5a56 56 0 0 0-2.2-6.8c-.3-1-.5-2-1-1.5-.3.4-.9-.4-1.7-1a1.4 1.4 0 0 0-2 .7c-4.6 7.2-6.3 7.7-3.6 10.3 2.3 2.4 4 4.4 5.8 5l.3.1h-.2L400 29.7s8 7 13.6 9.3c5.6 2.3 5.2 3 5.2 3s16.8 8.5 19.4 8.3c2.6-.1 2 17.5 1 20.4-1.1 2.8-2.9 23.4-2.9 23.4s-1.6 4.4.1 7.4c0 0 .4 5.8 0 7.1a24.6 24.6 0 0 0-4 10.5v.7l-.5.3.4-.1c-.2 1.7-.5 3.4-1.1 5-1 2.4-1.4 4.8-1.4 7.3v13.3l-1.1 8.3s-1.3 6.2 0 7.7c.6.7.8 1.6.7 2.5 0 1 .3 2.1.9 3 .5.5.7 1.2.6 2-.5 1.4.6 16.8.6 16.8s-.3 4.2-.8 4.5c-.4.2.8 4.8.8 4.8s-4.6 3.8-3.4 5.9l1.2 1.7-.3.3-.2.2c-.4-.2-.8-.3-1.2-.2-1.4 1.5-3 2.8-4.6 4-2 1.6-7.6 3.7-7.6 3.7l-4.4.4s-2.2-.2-1 3c1.2 3.3 11.7 2.3 11.7 2.3l6.2-1s11 0 14.1-.6c1.3-.3 1.6-1 1.5-1.7a4.4 4.4 0 0 0-1-2l.2-2.3c4.7-2.7-1.3-8-1.3-8s2-4.4 3.1-5.9c1-1.4 1-22.7 1-22.7s.6-7.7-.8-9.5c0-1.2.5-2.3 1.5-3 1-.7 4.2-10.4 6.7-18.6l1.5 9.6s-.3 4.6.7 6c.4.4.5 1 .4 1.7a8 8 0 0 0 .2 3.9c.2.5.4 1 .8 1.4 1 .4 1 2 1.3 2.3.4.4 2.4-.4 2.6.8v3.2l.6 19.9s-1 1.7-1.3 6c-.1 1.9-.5 3-.8 3.6-.4.7-.4 1.5.1 2.1l.2.2-.8.7c-.7.5-.9 1.4-.5 2.2a1.8 1.8 0 0 0-.4 2.3c-.6 0-1.2.4-1.6.8-.9 1.1-1.9 2.1-3 3a55.8 55.8 0 0 0-4.7 4c-.7 1-1.7 1.8-2.8 2.3l-.8.2c-2.3.5-1.5 2.8.3 3.1 1.8.4 7.7 2.2 12.3 1.2 0 0 1.4.5 3.4-.5s6.6-2.2 6.6-2.2 2.5 0 2.9-1l.1-1v-.1a13.2 13.2 0 0 0-1.1-5.7c1-1.7-.6-5.7-.6-5.7.5-.8 1.2-1.6 2-2.2.8-.7 3.2-18.1 3.2-18.1s-.1-4.5 1-6.5c1.3-2-1.6-14.2-1.6-14.2s-1.2-2.8-.8-3.8c.5-1-.4-4.6-.4-4.6v-4.4c0-.6-.1-1-.3-1.6-.3-1-.8-3-.3-4.5.8-2 2.6-14.4 2.6-14.4s-1.4-5.4.6-9.8l.6-1c1.5-2.4 1-6.6.3-10l-.3-1.6-.2-.6h.2l.1-1a6.1 6.1 0 0 0 4-2.8s5.2-5.7 9.7-8.2c4.6-2.4 4.9-6 4.9-6-.7-1 1.2-5.9 1.2-5.9l-.2-5.1zM480 86.9l-4.8 5.6c-1.3-1.8 1.2-5.7 1.2-5.7l4-9c0 1.2-.2 2.2-.6 2.7-1 1.5 2 4 2 4-1.6 0-1.8 2.4-1.8 2.4z" fill="url(#a)" fill-rule="nonzero"/>
    <path d="M394.5 13l-2.7 5a11 11 0 0 1-2.6-.5 9.5 9.5 0 0 1-6-5C380.9 7.3 385 4 386.8 3c2-1 3.7-2 5 1.1a54.3 54.3 0 0 1 2.8 8.8zM478.5 39.1l-4.3 6.2s-20 9.3-16.2-1.6c1.7-4.9 1.9-8.4 1.6-10.9-.4-3-1.6-4.4-1.6-4.4s19.6-9.7 16.7-3a9 9 0 0 0-.7 4.3c.2 2.2 1 4.3 2.1 6.1.7 1.2 1.5 2.3 2.4 3.3z" fill="#CC818C"/>
    <path d="M471.6 165.1s2.8 12 1.6 14c-1.2 2-1.1 6.5-1.1 6.5s-2.3 17.3-3.2 18c-.7.6-1.3 1.4-1.8 2.2 0 0 1.5 4 .6 5.6l-.6.5c-1.5.6-7-2.1-10-3.8-.4-.3-.7-.6-.8-1-.2-.7 0-1.5.5-2-.4-.7-.2-1.7.5-2.2l.8-.6-.2-.2c-.5-.6-.5-1.5-.1-2.2a8 8 0 0 0 .7-3.5 13 13 0 0 1 1.4-6l-.7-19.7v-3.2c-.1-1.3-2.1-.5-2.5-.8-.3-.3-.3-1.9-1.2-2.3-.4-.4-.7-.9-.8-1.4a8 8 0 0 1-.2-3.9c0-.6 0-1.2-.4-1.7-1-1.4-.7-5.9-.7-5.9L452 142c-2.4 8-5.5 17.8-6.5 18.5-1 .6-1.6 1.7-1.5 2.9 1.4 1.7.9 9.4.9 9.4s0 21.2-1 22.6c-1 1.5-3 5.9-3 5.9s5.8 5.3 1.2 8c-4.8 2.6-14.5-4.8-14.5-4.8l1-1 .3-.3-1-1.8c-1.2-2 3.2-5.8 3.2-5.8s-1.2-4.6-.7-4.8c.4-.3.7-4.5.7-4.5s-1-15.3-.6-16.7c.1-.7 0-1.4-.5-2-.6-.8-1-1.8-.9-2.9.1-1-.1-1.8-.7-2.6-1.3-1.4 0-7.6 0-7.6l1.1-8.2v-13c0-2.6.5-5 1.3-7.4.7-2 1-4 1.2-6a25 25 0 0 1 4.1-10.5l1.4-2 35-1.4a48.9 48.9 0 0 0 1.4 5.3c.8 3.4 1.2 7.6-.3 10a8 8 0 0 0-.5 1c-2 4.3-.7 9.8-.7 9.8s-1.7 12.3-2.5 14.3c-.5 1.4 0 3.3.3 4.4l.3 1.5v4.4s.8 3.6.4 4.6c-.4 1 .8 3.8.8 3.8z" fill="#444053"/>
    <path d="M474.4 121a9 9 0 0 0-.5 1l-2.2-.1c.2-1-1.2-10.7-1.2-10.7l4.3-.2c.8 3.4 1.2 7.6-.4 10z" fill="#000" opacity=".1"/>
    <path d="M474.4 121l-.5 1-2.2-.1c.2-1-1.2-10.7-1.2-10.7l4.3-.2c.8 3.4 1.2 7.6-.4 10z" fill="#444053"/>
    <path d="M474.4 121l-.5 1-2.2-.1c.2-1-1.2-10.7-1.2-10.7l4.3-.2c.8 3.4 1.2 7.6-.4 10zM468.5 212.3c-.1.3-.4.5-.7.6-1.5.6-7.2-2.2-10.4-3.9-.4-.2-.8-.5-.9-1 1.8-.3 3 1.7 3 1.7.7-.4 1.4-.5 2.2-.3.7.2 1.3.6 1.7 1.2 1.5 2.3 5 1.3 5 1.3l.1.4z" fill="#000" opacity=".1"/>
    <path d="M469.4 218.2c-.4 1-2.8 1-2.8 1s-4.4 1.1-6.3 2c-2 1-3.3.5-3.3.5-4.4 1-10.2-.7-11.9-1-1.7-.4-2.4-2.6-.3-3l.8-.2c1.1-.5 2-1.2 2.7-2.1 1.4-1.4 3-2.6 4.5-3.8a13 13 0 0 0 2.9-2.8c2.5-2.2 4.4.8 4.4.8.5-.4 1.3-.5 2-.3.6.2 1.2.6 1.5 1.1 1.5 2.1 4.7 1.3 4.7 1.3a37 37 0 0 0 1 3.3 8 8 0 0 1 0 3.2z" fill="#FF748F"/>
    <circle fill="#575988" cx="462" cy="211.5" r="1"/>
    <circle fill="#575988" cx="459" cy="213.5" r="1"/>
    <circle fill="#575988" cx="456" cy="215.5" r="1"/>
    <circle fill="#575988" cx="458" cy="214.5" r="1"/>
    <circle fill="#575988" cx="461" cy="211.5" r="1"/>
    <path d="M469.4 217.6c-.4 1-2.8 1-2.8 1s-4.4 1.5-6.3 2.5c-2 1.1-3.3.5-3.3.5-4.4 1.2-10.2-.8-11.9-1.2-1.7-.3-2.4-2.8-.3-3.3.3 0 .6-.2.8-.3a19 19 0 0 0 5.9 1.2c4.4.2 7.9 0 7.9 0l4.4-1.6a7 7 0 0 1 2.8-1c1-.3 2-.8 2.7-1.4.2 1.2.3 2.4 0 3.6z" fill="#DCE6F2"/>
    <path d="M457.3 221h-.8v-.5c1 .2 2 0 3-.4l1.2-.7 1.5-.8.5-.2c.3 0 .6-.2.8-.3l.4-.2 1.1-.5h.6l.5-.1 1-.5 1.1-.4h.3c.3 0 .5-.2.7-.4l.3.3c-.3.2-.6.4-1 .4h-.2l-1 .5-1 .4-.7.1-.5.1-1 .5-.5.2-.8.3-.4.2-1.5.7-1.3.7c-.8.4-1.5.6-2.3.6z" fill="#575988" opacity=".5"/>
    <path d="M459.5 165s2.3-3.6 6.3-3.5c4 0 5.7-.5 5.7-.5s-2.6 1.6-4.3 1.8c-1.8.2-7.7 2.2-7.7 2.2zM460.5 166s2.3-1.7 3.6-1.8c1.3 0 2.4-.2 2.4-.2-.6.5-1.3.8-2 1-1.1.4-4 1-4 1zM461.5 167s3 .2 3 1M432.5 121c.2 0 3.4-3 3.6-4.2a3 3 0 0 1 1.4-1.8s2 .7.2 3-5.2 3-5.2 3zM474.2 25.4c-.6 1.5-1.2 1.6-1 3.1-.8.8-1.7 1.5-2.6 2-2 1.2-4.2 3.5-6.7 3.5-1.6 0-3.3-.3-4.8-1a8.8 8.8 0 0 0-1.6-4.4s19.6-10 16.7-3.2z" fill="#000" opacity=".1"/>
    <path d="M477.5 20a13 13 0 1 1-26 0 13 13 0 0 1 26 0z" fill="#CC818C"/>
    <path d="M478.5 40.2l-4.3 6.1s-20 9.3-16.2-1.6c1.7-4.8 1.9-8.3 1.6-10.7.2.8.4 1.6.4 2.5 0 1.6.1 3.8 4.4 4.4 7.2 1.2 11-3.1 11.7-4a20 20 0 0 0 2.4 3.3zM394.5 13.3l-3 5.7c-1 0-1.8-.3-2.7-.6l-.3-.3c1.2.5 5.3-7.1 5.3-7.1l.1.1.6 2.2zM474.5 109c-8.7 4-39 .7-39 .7l.2-1 1.4-2.2 36.2-1.5 1.2 4z" fill="#000" opacity=".1"/>
    <path d="M460 32.6l-3.9 1.7c-1.2 0-2.3-.7-2.8-1.9-1-1.9-4.2 0-4.2 0s-9.9-.7-13.5 1.1c0 0-6-2.5-6.7-2.6-.8-.2-2.1-.9-2.7-.7-.6.2-1.3-1-1.7-1-.5 0-.6-.8-2-1.2-1.3-.3-1.8.1-3.3-1.4-1.5-1.5-13.6-7.4-13.6-7.4l-5.5-4.5-5.9-4.7s-3.6 7-4.7 6.5l11 13.4s8 7 13.5 9.2c5.5 2.3 5.1 3 5.1 3s16.7 8.5 19.3 8.3c2.5-.1 2 17.5 1 20.3-1.1 2.9-2.9 23.4-2.9 23.4s-1.7 4.4.1 7.4c0 0 .4 6.1 0 7.2 0 0 29.8 3.2 38.3-.5 0 0 1.2-13.9 0-15.7-1.3-1.7 1.2-5.6 1.2-5.6l5.2-12 13-13.1s2-11-6.9-18l-6-5.3s-3.2-2.8-4.2-3c-1-.2-.6 0-.6 0s-3.8 5.6-11.7 4.3c-4.3-.7-4.4-3-4.4-4.6 0-1-.2-1.8-.4-2.6z" fill="#67647E"/>
    <path d="M475.5 78s-18.3.8-22 7c0 0 4.8-2.4 9-1.7s13-5.3 13-5.3zM455.5 98.9s8.4.7 10.2-1.5c1.8-2.1 1.8-3.4 1.8-3.4l-12 4.9zM477.7 60s-8.3 9 1.8 13l-1.8-13zM434.5 44s2.7 5.6 4 6l-4-6zM425.5 42s7.6 6.4 9 7c0 0-7.9-7-9-7zM452.5 36s-7 9.3-2.5 15c0 0-2.5-6.7 2.5-15z" fill="#000" opacity=".1"/>
    <path d="M469.5 108.2l-2 1.9-.3.2-2.3 2.1-.4.4c-9.4 6.5-11.3-3.4-11.3-3.4s-4 2.6-4.7.5c-.6-2.1 9.6-5.2 11.1-5h.4c.8-.1 1.5-.4 2.1-.7l.5-.3 1.5-.9 5.4 5.2z" fill="#CC818C"/>
    <path d="M477.5 20.4c0 4.8-2.5 9.2-6.6 11.6l-.5-1c-.4-1.1-.7-2.3-1.2-3.4-.6-1.3-1.3-2.4-2.3-3.3l-.5-.4c-.5 0-1 0-1.3.3-.5.4-1.2.7-1.8.8a2 2 0 0 1-2-.5c-.4-.7-.4-1.6-.2-2.4.3-1.7.9-3.5.9-5.2 0-1.8-.7-3.7-2.3-4.6-1.3-.8-3-.6-4.5-1l-.7-.2a13.4 13.4 0 0 1 23 9.3z" fill="#000" opacity=".1"/>
    <path d="M455 9.1c-.3.1-.6.4-.5.7l.3.3c.6.5 1.3.8 2 1 1.5.5 3.2.3 4.6 1 1.5 1 2.2 2.8 2.2 4.6 0 1.8-.6 3.5-1 5.2 0 .8-.1 1.7.4 2.4a2 2 0 0 0 1.8.5c.7-.1 1.3-.4 1.9-.8.3-.3.8-.4 1.2-.3.2 0 .4.2.6.4 1 1 1.7 2 2.2 3.3.5 1 .8 2.3 1.3 3.4a5.5 5.5 0 0 0 2.2 2.8c1 .6 2.5.5 3.4-.4.8-.8.7-2.1 1.1-3.2.7-2 2.5-3.1 3.7-4.8 1.3-1.8 1.6-4.2 2-6.4v-2.2c-.1-.4-.3-.9-.6-1.3-1.3-2.7-1.2-6.1-3.3-8.3-1.5-1.6-3.9-2-6-2.3-2.3-.3-4.6-.5-6.5-1.6a7 7 0 0 0-1.7-1c-.7-.2-1.4 0-1.8.6 0 .2 0 .4-.2.5h-.6l-3-.8.4 1.5c-1.1 0-2.2-.1-3.2-.5 0 .8 1 1.4 1.2 2.1a2 2 0 0 1-.5 2.1c-1.1 1-2.5.9-3.7 1.5z" fill="#585268"/>
    <path d="M441.5 208.9l-.1 1.4c-4.6 3-13.9-5.2-13.9-5.2l1-1.1c.3.4.4 1 .4 1.5l1.9.1 2.3 3s6.2.7 7.8.3h.6z" fill="#000" opacity=".1"/>
    <path d="M442 215.2c-3.2.7-14.2.6-14.2.6l-6.2 1s-10.6 1-11.7-2.3c-1.2-3.3.9-3.1.9-3.1l4.5-.4s5.6-2.2 7.6-3.8c1.6-1.3 3.2-2.7 4.6-4.2 0 0 1.8-.3 1.8 1.8l2 .2 2.5 2.7s6.6.8 8.4.3h.6l-.3 3.4h.1c.4.6 2.1 3.1-.7 3.8z" fill="#FF748F"/>
    <circle fill="#575988" cx="431" cy="207.5" r="1"/>
    <circle fill="#575988" cx="422" cy="211.5" r="1"/>
    <circle fill="#575988" cx="418" cy="211.5" r="1"/>
    <circle fill="#575988" cx="424" cy="210.5" r="1"/>
    <circle fill="#575988" cx="420" cy="211.5" r="1"/>
    <circle fill="#575988" cx="427" cy="209.5" r="1"/>
    <circle fill="#575988" cx="429" cy="208.5" r="1"/>
    <path d="M442 215c-3.2.8-14.2.8-14.2.8l-6.2 1S411 218 410 214.4c-1.2-3.6.9-3.4.9-3.4.7 1 2 2 4.8 2l7.6.4 7.9-.6s7.3-.2 8.5-.5l3-1.2c.4.6 2.1 3.3-.7 4z" fill="#DCE6F2"/>
    <path d="M421.7 216c-.4 0-.8 0-1.2-.2l.1-.3c1 .3 2 .2 3-.1l1.2-.4c1.7-.6 3.5-.8 5.3-.6h.2c3.3.2 6.6 0 9.9-.5.7 0 1.5-.4 2-.9l.3.2c-.6.6-1.4 1-2.3 1-3.3.6-6.6.7-10 .5h-.1l-3.3.1a15.9 15.9 0 0 0-3 1l-2 .2z" fill="#575988" opacity=".5"/>
    <path d="M468.5 108l-2 2-5-7 1.5-1 5.5 6z" fill="#000" opacity=".1"/>
    <path d="M490.9 57l3.8 5.4V68s1.8 6 0 11.9l.2 5.1s-1.9 4.8-1.2 6c0 0-.3 3.5-4.8 6-4.6 2.3-9.7 8-9.7 8s-1.9 3.7-7 3l-5 2-5.7-7.3 7.7-4.2s2.7-3.6 4.3-3.4l6.5-7.6s.2-2.4 1.8-2.4c0 0-3-2.5-2-4 1.1-1.5.2-8.2.2-8.2L490.9 57z" fill="#67647E"/>
    <path d="M483.5 81.2s8.8-.2 9.9 2.2c1 2.4-7.2-3.5-9.9-2.2zM466.5 110v.4a3.2 3.2 0 0 1-3.1 2.6h-.2c-1.8 0-3.3-1.4-3.3-3 0-.4 0-.7.2-1-1.5-1.2-1.6-3.2-1.6-4.2.8-.2 1.6-.4 2.3-.8.4 1 1 2 1.6 3h.8c.9 0 1.7.3 2.3.8.7.6 1 1.4 1 2.2z" fill="#000" opacity=".1"/>
    <path d="M461.7 102s-2.2.5-2.2 1c0 .3-.4 4 1.9 5.6 2.3 1.6 2-2.1 2-2.1s-2-3.3-1.7-4.5z" fill="#575988"/>
    <circle fill="#E4AAB4" cx="463.5" cy="110" r="3"/>
    <circle fill="#DCE6F2" cx="463.5" cy="110" r="3"/>
    <path d="M451.5 111s6.2 5.5 14 2v2.7s-5.2 4-10 1.5c-4.7-2.3-4-6.2-4-6.2z" fill="#000" opacity=".1"/>
    <path d="M451.5 110s6.2 5.5 14 2v2.7s-5.2 4-10 1.5c-4.7-2.3-4-6.2-4-6.2z" fill="#000" opacity=".1"/>
    <path d="M451.5 110s6.2 5.5 14 2v2.7s-5.2 4-10 1.5c-4.7-2.3-4-6.2-4-6.2z" fill="#444053"/>
    <path d="M452.5 110s6.2 5.5 14 2v2.7s-5.2 3.9-10 1.5c-4.7-2.3-4-6.2-4-6.2zM432.5 204l9.5 2c1.3.4-.3 1-.3 1s-7.6-1.5-9.2-3zM431.5 199c.1 0 5.8-1.8 7-5M440.5 167s2.2 3 3.7 3c1.4 0-2.4-3.1-3.7-3zM441.5 172s1.2 2.7 3 1.8M446.5 126l6.8 15s1-9.6-1-12.5a6.4 6.4 0 0 0-5.8-2.5z" fill="#000" opacity=".1"/>
    <g opacity=".1" fill="#000">
      <path d="M462 3v-.3l-1-.3.1.5h1zM459.4 6.7l.1-.1a2 2 0 0 0 .6-2l-.5-.8c-.4 0-1-.2-1.3-.4-.1.8.8 1.4 1.1 2.2.2.3.2.7 0 1zM475.1 32.3c-1-.6-1.8-1.6-2.2-2.7l-1.3-3.4c-.5-1.2-1.3-2.4-2.2-3.3l-.6-.4c-.4 0-.9 0-1.2.3l-1.8.9a2 2 0 0 1-1.9-.6c-.5-.6-.4-1.5-.3-2.3.4-1.8.9-3.5.9-5.2 0-1.8-.7-3.7-2.2-4.5-1.3-.8-3-.6-4.4-1-.8-.2-1.5-.6-2.1-1l-.2-.2-.3.2c-.3.1-.5.4-.4.6 0 .2 0 .3.2.3.6.5 1.3 1 2 1.1 1.6.4 3.2.2 4.6 1 1.5.9 2.2 2.8 2.2 4.5 0 1.7-.6 3.5-1 5.2 0 .8-.1 1.7.4 2.3a2 2 0 0 0 1.8.6c.7-.2 1.3-.5 1.9-.9.3-.2.7-.3 1.2-.3l.5.4c1 1 1.7 2 2.3 3.3.4 1 .7 2.3 1.2 3.4a5.5 5.5 0 0 0 2.2 2.8c1 .5 2.6.5 3.4-.4l.5-.8c-1 .7-2.2.8-3.2.1zM479.9 28.1l2.7-3 .4-.7c-1 1.2-2.4 2.3-3.1 3.7z"/>
    </g>
    <g opacity=".1" fill="#000">
      <path d="M430.3 12.2H297.6a7 7 0 0 0-7 7v84a7 7 0 0 0 7 6.9h104.1s2.7 14.3-6.2 15.8c0 0 19.9 1.5 16.4-15.8h18.4a7 7 0 0 0 7-7v-84a7 7 0 0 0-7-6.9z"/>
      <g opacity=".2" transform="translate(310.1 34.5)">
        <rect x=".1" y=".1" width="107.5" height="6.6" rx="3.3"/>
        <rect x=".1" y="29.4" width="88.7" height="6.6" rx="3.3"/>
        <rect x=".1" y="14.7" width="63.9" height="6.6" rx="3.3"/>
      </g>
    </g>
    <path d="M432.6 11H299.5a7 7 0 0 0-7 7V102a7 7 0 0 0 7 7h104.4s2.7 14.3-6.2 15.9c0 0 19.9 1.4 16.4-16h18.4a7 7 0 0 0 7-6.9V18a7 7 0 0 0-7-7z" fill="#FFF"/>
    <g opacity=".2" transform="translate(311.5 34)" fill="#6C63FF">
      <rect x=".1" width="107.8" height="6.6" rx="3.3"/>
      <rect x=".1" y="29.4" width="89" height="6.6" rx="3.3"/>
      <rect x=".1" y="14.7" width="64" height="6.6" rx="3.3"/>
    </g>
    <ellipse fill="#6C63FF" opacity=".1" cx="331" cy="416.5" rx="47.5" ry="7.5"/>
    <g opacity=".1" fill="#000">
      <path d="M385.7 179.5H242.2a7.5 7.5 0 0 0-7.5 7.5V278c0 4.1 3.4 7.5 7.5 7.5h112.6s3 15.5-6.7 17.2c0 0 21.5 1.6 17.7-17.2h20c4 0 7.4-3.4 7.4-7.5V187c0-4.1-3.3-7.5-7.5-7.5z"/>
      <g opacity=".2" transform="translate(255.8 219.4)">
        <rect y="16" width="116.3" height="7.1" rx="3.6"/>
        <rect y=".1" width="50.4" height="7.1" rx="3.6"/>
      </g>
    </g>
    <path d="M384 179H241a7.5 7.5 0 0 0-7.5 7.5v90.8c0 4.1 3.4 7.5 7.5 7.5h112.2s2.9 15.5-6.7 17.2c0 0 21.4 1.5 17.7-17.2H384c4.1 0 7.5-3.4 7.5-7.5v-90.8c0-4.1-3.4-7.5-7.5-7.5z" fill="#FFF"/>
    <g opacity=".2" transform="translate(253.5 218)" fill="#6C63FF">
      <rect x=".5" y="16.7" width="116.3" height="7.2" rx="3.6"/>
      <rect x=".5" y=".5" width="50.4" height="7.2" rx="3.6"/>
    </g>
    <path d="M358.5 411.7c-.7-2.9-1.1-5.4-1.1-5.4s.1-3.2-1.3-5.5v-6.6l1.5-3c1-1.9 0-8.5 0-8.5s-3.9-9.5-3-15.4c1-6-8-26.6-8-26.6.1-2 .4-3.9 1-5.8a4.5 4.5 0 0 0 0-1.4c0-3.9-3.2-11.3-3.2-11.3l.4-14s2-8.3-1.2-19.5c-1.2-3.9-1.9-7-2.4-9.4l-.1-.8 11.8-1.8s-3.9-16.2-6.5-19c-2.6-2.8-4.7-11.8-4.7-11.8s-1.4-11.5.8-14.8c2.2-3.3 2.5-9.1 2.5-9.1s5-3.7 5.7-5.3c.6-1.6 1.7-5.2 1.7-7.2 0-1.9-.7-3.6-.4-4.6.2-1-1.5-4.9-.7-6.7a5 5 0 0 0 .4-1.8c0-1.6-.2-3.2-.5-4.8a13.5 13.5 0 0 0-5-2.6v-.5l-.3-1-.5-.4v-2l.7-3.7c1.6-6.5-7-7.4-7-7.4-.5-1-1.4-1.8-2.5-2.1-1.7-.7-.2 9.6.6 10.3.6.5 2.4 3.7 3.3 5.3l.2.2-.4.5.3 2.2v.3c-.5.7-1 1.5-1.3 2.4 0 0 1.6 1.7 1.3 3.6-.4 2 .4 4.3.5 4.5-.1-.1-1.2-1.3-2.3-1l-4.2 1.2s-2.3.4-2.1.9c.2.5-1.6 2.7-1.6 2.7l-6.1-5.8-.2-.6c-.3-.8-.5-1.7-.6-2.5l2-.7c.6-.2 1.2-.6 1.7-1 .6-.8.7-1.8 1-2.7.5-1.8 1.5-3.4 2.3-5.1 1.2-3 1.7-6.1 1.2-9.2a6 6 0 0 0-1-2.7c-1-1.4-2.8-2-4.1-3-1.4-1.2-2.2-2.9-3.8-3.7-1.4-.8-3-.7-4.6-.4-3.1.5-6.1 1.6-8.8 3.2-.9.5-1.9 1.1-3 1-.8-.2-1.5-1-2-1.6v-.1a10.9 10.9 0 0 0-1 5.2v.8c-.1.4-.3.6-.6.9l-.5.7.1-.3c-.4.6-.6 1.3-.6 2 0 .5.1 1 .4 1.4l1 .8c-.8 4.8 1.4 9.7 5.6 12.2l.3.6c.7 2 1.3 4.5 1 6.7v.5c0 .2-.2.2-.2.3 0 0-10.2 0-12.6-2.1-2.4-2.2-6 5.3-6 5.3s-3.7.7-4.5 0c-.7-.7-5-.1-5-.1a9.2 9.2 0 0 0-6.3-2.3c-1.5-1.1-3-2-4.7-2.6h-.1c-.8-.3-1.5-.4-2.3-.4 0 0-5-4.1-6.5-6.3-1.5-2.3-8.4-10.5-8.5-10.6v-1.6a4 4 0 0 1-.7 0l-.1-.3c-.4-1.2-1-2.4-1.5-3.4 0 0 0-1.6.5-2 .4-.3-.2-5.9-.2-5.9s-4.6-10.6-8.6-2.7c0 0-7.7 5.1-1.2 11 0 0 2.5 1.3 2.9 2.3.2.7 1.1 2.5 1.7 3.6l.2.6v1l.1.4c-1.2.7-2 1.4-1.8 1.9.3.9.6 1.8.7 2.7 0 0 8.8 11.1 10 16 0 0 23.8 14 31.7 15l-1.4 7.2-.3 5.7c0 1.6-1 8.5-1 8.5s-1.3 10-2.5 11.5c-1.1 1.4-.9 7.5-.9 7.5-.2 2.9-.8 5.8-1.5 8.6-1.2 3.8-.4 8.6-.4 8.6s-4 9.1 5.6 3c0 0 4.7-.4 10-.5v2.8c0 5.2-.1 12.4.1 17.8.5 9.6 3.4 28.7 3.4 28.7v9.5l-.3 2.7c0 3.4.9 6.7 2.6 9.6l.7 6.4s1.8 4.2 1.8 6.7v.6c-.2.4-.2.7-.2 1 0 2.9 1.7 9.8 1.7 9.8s0 7 1.1 7.4c.9.4-1.2 4-1.8 5.1v-.2l-.2.2-.3 1.8c-.1 1 .3 2 1.1 2.4 2 1.2 3.1 2.3 1.4 2.7-.6 0-1.2.2-1.8.4l-.1-.3c-.5.2-.8.7-.7 1.2 0 .9.2 1.7.6 2.4a27 27 0 0 0 2.8 5.2l.8-.1c0 .3-.2.6-.4.8-.3.5-.7.8-1.2 1.1-.5.3-1 .4-1.4.5a4 4 0 0 0-3 1.4c-1 1.4-1.7 3.2.4 4.8l7.4 2.6s12.9 1.7 12.2-1.2c-.7-2.9-1.1-5.4-1.1-5.4 0-1.8-.3-3.5-1-5.1l-.5-.8h.4s1-6.4 2.2-7.6c.3-.3.4-.5.3-.7.1-.3-.2-.6-.6-.7v.3l-1.3-.2s-.5-3.3 1-4.5l.2-1c0-.5 0-1-.2-1.4v.1c-.7-3-3-7.8-3-7.8s-.1-3 .7-4.3c.9-1.2 0-16.5 0-16.5s.2-7.4-.7-10.8c-1-3.5 1.1-7.5 1.1-7.5v-.2-1.2l-1-7.1c-.4-2.3.1-13.5.1-13.5l2-4.7 3.3 8.2 3.5 10.9a9.3 9.3 0 0 0 1.8 5v.7c0 1.4.3 2.8 1 3.9 0 0 1 5.2 2.5 6.5 1.4 1.3 1.4 3.8 1.4 3.8s1.8 7.5 2.7 8.8c.7 1.2.7 4.2.7 5.1v.3l.2 5v.7c0 .6 0 1.2-.2 1.8v.1-.4c-.4 1.5-.6 3.1-.5 4.7-.1 2.7.3 5.9 2 7.7 2.7 3.3 4.5 2.9 4.5 2.9s-1.3 4-3 4.8l-.2.2v-.3a2 2 0 0 0-.5 1.5c-.1 1.8 1 4.7 2 6 .5.4 1 .7 1.5.8l-.3.2-.5.3-.9.2a4 4 0 0 0-3 1.4c-1 1.4-1.6 3.2.4 4.8l7.5 2.6s12.8 1.7 12-1.2z" fill="url(#b)"/>
    <path d="M309 416.5l-7.2-2.4c-2-1.6-1.4-3.3-.4-4.6.7-.8 1.8-1.3 2.9-1.4.4 0 1-.2 1.3-.4.5-.3.8-.6 1.1-1a5 5 0 0 0 .8-2.7s7.9-2.2 10 0l1 1.3a11 11 0 0 1 1 5s.3 2.3 1 5c.6 2.8-11.6 1.2-11.6 1.2zM343.9 412.5l-7.1-2.4c-2-1.6-1.4-3.3-.4-4.6.7-.8 1.8-1.3 2.9-1.4.2 0 .5 0 .8-.2l.5-.2c2-1.1 2-3.7 2-3.7s7.8-2.2 9.9 0l.7 1c1.4 2.2 1.2 5.2 1.2 5.2l1 5.2c.7 2.7-11.5 1.1-11.5 1.1z" fill="#2D293D"/>
    <path d="M317.5 403l1 1.6-12 1.4c.5-.9.8-1.9.8-3 0 0 8-2.3 10.2 0zM354.5 401.2v2.5c-2 3.3-11.3 2.6-14 .9l.6-.3c2-1.2 2-4.2 2-4.2s8.3-2.5 10.6 0l.8 1.1z" fill="#000" opacity=".1"/>
    <path d="M356 391l-1.4 3v7.9c-2 3.3-12.5 2.2-14 .4-1.4-1.8-2.9-6.5-1.3-7.3 1.7-.8 3-4.8 3-4.8s-1.7.4-4.5-2.8c-2.7-3.2-1.9-10.3-1.4-12 .5-1.7 0-7.4 0-7.4s.1-4-.7-5.3c-.8-1.3-2.5-8.7-2.5-8.7s0-2.5-1.4-3.8c-1.5-1.3-2.4-6.4-2.4-6.4a6.5 6.5 0 0 1-1-4.3c.3-2.5-1.7-5.2-1.7-5.2l-3.5-10.8-3.2-8.2-1.8 4.7s-.5 11-.1 13.4c.4 2.3 1 8.4 1 8.4s-2 4-1.1 7.4c.9 3.4.6 10.7.6 10.7s.9 15 0 16.3c-.7 1.2-.6 4.2-.6 4.2s4.1 8.8 2.8 10c-1.4 1.2-1 4.5-1 4.5s2.9 0 1.7 1.2-2 7.5-2 7.5l-12.3 1.4s-1.2-1.4-2.8-5.1c-1.6-3.7.3-3.3 2-3.7 1.6-.4.5-1.4-1.4-2.6-1.9-1.2-.8-3.9-.8-3.9s3-4.9 2-5.3c-1-.4-1.2-7.3-1.2-7.3s-2-8.2-1.5-10.4c.5-2.2-1.6-7.5-1.6-7.5l-.7-6.3c-2.2-3.6-3-7.8-2.3-12v-9.6s-2.8-18.9-3.2-28.4a378 378 0 0 1-.1-19.6v-4.8l43.8-4.5a95.3 95.3 0 0 0 3 15.7c3.2 11 1.3 19.2 1.3 19.2l-.4 14s3.8 9.2 3 12.4c-.5 2-.7 3.9-.8 5.8 0 0 8.6 20.4 7.7 26.3a38 38 0 0 0 2.8 15.2s1 6.6 0 8.4z" fill="#575988"/>
    <path d="M329.5 338.8l14-1.8s-8 7.7-14 1.8zM341.5 324s.6 5-3 7c0 0 6.4-.9 3-7zM340.5 309s-10.6 9.7-14.5 9c-3.8-.8 14.5-9 14.5-9zM313.5 343s-8.7 2.2-9 6.1c-.3 3.9 9-6.1 9-6.1zM315.5 384s-11.7 2.4-8.4 4c3.3 1.7 8.8 3 8.8 3s3.8.2-.4-7z" fill="#000" opacity=".1"/>
    <g opacity=".1" fill="#000">
      <path d="M305.5 391.6c-.6-.4-1-1-1-1.7l-.2.2s-1.1 2.7.8 4l.6.3c.4 0 .7 0 1.1-.2 1.6-.4.6-1.4-1.3-2.6zM320.7 390.8c.3-.3.3-1 .1-2-.5.8-.7 1.8-.7 2.9l.6-.9zM318.9 340.7c-.5 1.1-.7 2.4-.8 3.7.2-1 .5-1.8.9-2.6l-.1-1.1zM346 335.4v-1.2a26 26 0 0 0 0 1.2zM318.6 376.5c.2-.7.3-1.5.3-2.2-.4.9-.6 1.8-.6 2.8l.3-.6zM321 395.5c-.5 2-1 4.1-1.3 6.2l-12 1.4s-1.2-1.4-2.8-5.1c-.1-.4-.3-.6-.3-1-.8.4-1 1.2-.1 3.4 1.6 3.7 2.7 5.1 2.7 5.1l12.1-1.4s1-6.3 2.1-7.5c.6-.6.2-1-.3-1zM305 377.4s.2 7 1.2 7.4c.5-1.2.8-2.3.4-2.5-1-.4-1.1-7.3-1.1-7.3s-2-8.3-1.5-10.5c.5-2.2-1.6-7.6-1.6-7.6l-.7-6.3c-2.2-3.6-3-7.9-2.2-12v-9.8s-2.8-19-3.2-28.5c-.3-6.2-.2-14.5-.1-19.7V278h-.3l-.1 4.9c-.1 5.2-.2 13.6 0 19.7.5 9.6 3.3 28.5 3.3 28.5v9.8c-.7 4.2 0 8.4 2.2 12l.7 6.3s2.1 5.4 1.6 7.6a45.6 45.6 0 0 0 1.5 10.5zM340.7 400.4c-1-1.4-1.6-3-2-4.8-1.1 1.1.3 5.5 1.6 7.2 1.4 1.8 11.8 3 13.8-.4v-2c-2.7 2.8-12 1.7-13.4 0zM356 389l-1.5 3v1.4l1-2a6 6 0 0 0 .5-2.5v.1zM341.3 390.6l1-2.4s-1.7.4-4.4-2.8c-2-2.4-2-6.8-1.8-9.7-.5 1.7-1.3 8.9 1.4 12.1 1.8 2.1 3.1 2.7 3.8 2.8zM336.1 368.2a54.3 54.3 0 0 1 .4 5c.5-1.6 0-7.4 0-7.4s.1-4-.7-5.3c-.8-1.3-2.5-8.8-2.5-8.8s0-2.5-1.4-3.8c-1.4-1.3-2.3-6.5-2.3-6.5a6.6 6.6 0 0 1-1-4.3c.3-2.5-1.7-5.3-1.7-5.3l-3.4-10.9-3.2-8.1-1.8 4.7v1.5l1.4-3.8 3.2 8.2 3.4 10.9s2 2.7 1.7 5.2c-.1 1.5.2 3 1 4.3 0 0 1 5.2 2.3 6.5 1.4 1.3 1.4 3.8 1.4 3.8s1.7 7.5 2.5 8.8c.8 1.3.7 5.3.7 5.3z"/>
    </g>
    <path d="M344.3 182.2l-.7 3.6v2.8l-4.1.4-.5-.8c-.9-1.6-2.6-4.7-3.2-5.2-.8-.6-2.2-10.6-.5-10 1 .4 1.8 1.1 2.3 2 0 0 8.2 1 6.7 7.2z" fill="#FFCDD3"/>
    <path d="M343.5 188.6l-4.5.4-.5-.8a4.4 4.4 0 0 1 5-.7v1.1z" fill="#000" opacity=".1"/>
    <path d="M344.5 190.6L338 192l-.1-.9-.4-2.4s2.6-3.2 6.3-.8l.3 1.2.4 1.5z" fill="#DCE6F2"/>
    <path d="M254.5 181.8l-6.2 3.2-.6-1.1-1.7-3.6c-.3-1-3-2.3-3-2.3-6.4-6 1.3-11 1.3-11 4.1-8 8.7 2.6 8.7 2.6s.6 5.6.1 6c-.4.4-.4 1.9-.4 1.9.6 1 1 2.2 1.5 3.4l.3 1z" fill="#FFCDD3"/>
    <path d="M254.5 182.1l-6.4 3.9-.6-1.4c.9-.8 4.1-3.7 5.2-3.6h1.5l.3 1.1z" fill="#000" opacity=".1"/>
    <path d="M255.5 184.5l-7.7 3.5-.2-1.5-.1-1s4.5-3.6 5.8-3.5h2l.1 1.3.1 1.2z" fill="#DCE6F2"/>
    <path d="M327.5 207s-29.9 3.3-24.3 1.5c3.9-1.3 5.4-3.7 5.8-6.4.2-2.3-.4-4.8-1.2-6.9-.7-1.8-1.6-3.6-2.6-5.3 0 0 22.8-12.5 18.2-1.2a18 18 0 0 0-1.2 5.4c-.2 1.8 0 3.7.5 5.4a16 16 0 0 0 4.8 7.4z" fill="#FFCDD3"/>
    <path d="M323 187.8a19 19 0 0 0-1.3 5.4c-2 1.8-4.3 1.7-7.2 1.7-2.2 0-4.7.5-6.5-.6-.6-1.9-1.5-3.7-2.5-5.4 0 0 21.8-12.5 17.4-1.1z" fill="#000" opacity=".1"/>
    <circle fill="#FFCDD3" cx="314.5" cy="185" r="12"/>
    <path d="M327.5 205.9s-29.9 3.4-24.3 1.6c3.9-1.3 5.4-3.8 5.8-6.6 1.4-1.6 4.4-2.8 6.4-3.4a8.8 8.8 0 0 1 7.3.8c.9 3 2.5 5.5 4.8 7.6zM344.5 190.6l-5.9 1.4-.1-.9a5.2 5.2 0 0 1 5.6-1.9l.4 1.4zM254.5 184.3l-6.9 3.7-.1-1.6c2.2-1.3 4.5-2.5 7-3.4v1.3zM339.5 279.5c-11.1 1.8-27 4.1-29.5 3.3-2-.6-8.7-.5-14.5-.3l.1-5 43.1-4.5c0 2.2.3 4.4.8 6.5z" fill="#000" opacity=".1"/>
    <path d="M350.5 276.7s-37 6.3-41 5c-4-1.1-24.4.2-24.4.2-9.1 6-5.3-3-5.3-3s-.8-4.6.3-8.4c.7-2.8 1.3-5.6 1.5-8.5 0 0-.2-6 1-7.4 1-1.4 2.4-11.4 2.4-11.4s1-6.8.9-8.3c0-2 0-3.8.3-5.7l1.3-7c-7.6-1-30.6-15-30.6-15a72.7 72.7 0 0 0-9.7-15.7c0-1-.3-1.8-.7-2.7-.6-1.6 8.5-4.8 8.5-4.8s6.8 8.2 8.2 10.4c1.4 2.2 6.2 6.3 6.2 6.3a5 5 0 0 1 2.3.3c1.7.7 3.2 1.5 4.6 2.6 2.3 0 4.5.8 6.2 2.3 0 0 4-.6 4.8 0 .7.8 4.2 0 4.2 0s3.6-7.3 5.9-5.2c2.3 2.2 12.1 2 12.1 2 1.4-1.6 4.6-2.9 6.5-3.5 1.8-.6 3.6-.6 5.3-.1.8.2 1.5.5 2 1l6 5.8s1.8-2.2 1.6-2.7c-.2-.5 2-1 2-1l4-1.1c1.1-.3 2.1.9 2.3 1 0-.1-.8-2.6-.5-4.4.3-1.9-1.3-3.6-1.3-3.6 3.6-8.6 11.6-1.4 11.6-1.4s.9 4.7 0 6.5c-.8 1.8.9 5.6.7 6.6-.2 1 .4 2.7.4 4.6 0 1.9-1 5.5-1.7 7-.6 1.7-5.4 5.3-5.4 5.3s-.3 5.7-2.4 9-.9 14.6-.9 14.6 2 8.8 4.6 11.6a84.6 84.6 0 0 1 6.2 18.8z" fill="#656691"/>
    <path d="M297.2 211s-1.3-3.8-2.4-4.1a27 27 0 0 1-3.3-1.5l.7-1.4s4.3 1.2 5 2.4c.7 1.3 0 4.6 0 4.6zM276.5 202.9c-.2 1.1-9 2.1-9 2.1l4.5-5c1.7.7 3.2 1.7 4.5 2.9z" fill="#000" opacity=".1"/>
    <circle fill="#575988" cx="249.5" cy="189" r="1"/>
    <circle fill="#575988" cx="250.5" cy="191" r="1"/>
    <circle fill="#575988" cx="252.5" cy="193" r="1"/>
    <circle fill="#575988" cx="253.5" cy="193" r="1"/>
    <circle fill="#575988" cx="349" cy="193.5" r="1"/>
    <circle fill="#575988" cx="349" cy="194.5" r="1"/>
    <circle fill="#575988" cx="349" cy="196.5" r="1"/>
    <path d="M295.5 238c-.1-.1 23 28.3 41 11.9 0 0-28.4 3.7-41-11.9zM283.5 252s12.7.4 14 4.4v4.3c-.7.4-1.6.4-2.4 0-1.2-.8-8.9-5.1-11.6-3V252z" fill="#000" opacity=".1"/>
    <path d="M283.5 253s12.7.4 14 4.4v4.3c-.7.4-1.6.4-2.4 0-1.2-.8-8.9-5.1-11.6-3V253z" fill="#656691"/>
    <path d="M291.5 223c1.4 3.2 3.3 6.2 5.5 9 2.3 3.1 5.2 5.8 8.5 8 0 0-13.8-15.1-14-17zM286.5 208s2.5 9.7 9 13l-9-13zM282.7 209c0-.2-2 7.7 7.8 12 0 0-4.2-1.4-7.8-12zM342.5 202c-.2 0 5.5 3.4 7 5 0 0-3.7-5.2-7-5z" fill="#000" opacity=".1"/>
    <path d="M310.4 195c.1.6.5 1.2 1 1.6.3.2.7.3 1 .3 3.7.2 7.5.3 10.9-1a4 4 0 0 0 1.7-1.2c.6-.7.7-1.7 1-2.6.4-1.8 1.4-3.4 2.1-5a17 17 0 0 0 1.2-9.2 6 6 0 0 0-.9-2.7c-1-1.3-2.7-2-4-3-1.3-1.1-2.1-2.8-3.6-3.6-1.3-.8-3-.7-4.5-.4-3 .5-5.9 1.6-8.5 3.1-.8.6-1.8 1.2-2.8 1-.8-.2-1.5-.9-2-1.6-.7 1.7-1 3.4-1 5.2.1.3.1.6 0 .8 0 .3-.2.6-.5.8-.9 1-1.4 2.7-.5 3.8.3.5 1 .7 1.3 1.2.7.8.5 2 .4 3.1 0 .4.1.7.3 1 .4.4 1 .6 1.5.4a4 4 0 0 1 1.6-.1c.5.1 1 .5 1.3 1 1.7 2.2 2.3 4.5 3 7z" fill="#2D293D"/>
    <g opacity=".1" fill="#000">
      <path d="M327.2 193.7c-.5.5-1 .9-1.7 1.1a25.4 25.4 0 0 1-12.1.8c-.6-.4-.9-1-1-1.6-.7-2.5-1.4-4.8-3-6.9-.4-.5-.9-.8-1.5-1l-1.6.1c-.5.2-1 0-1.4-.3-.3-.3-.4-.7-.3-1 0-1 .2-2.3-.4-3-.4-.5-1-.8-1.4-1.2-.5-.7-.6-1.6-.3-2.3-.6 1-.9 2.2-.1 3l1.3 1.2c.7.8.5 2 .5 3 0 .4 0 .8.3 1 .4.4 1 .6 1.4.4.6-.1 1.1-.2 1.6-.1.6.2 1.1.5 1.4 1a18 18 0 0 1 3.1 6.9c0 .5.3 1 .6 1.3.4.4 1 .5 1.5.5 3.7.2 7.6.4 11-1 .6-.2 1.2-.6 1.7-1l.5-1-.1.1zM303.5 176.8l.4-.6v-.8c0-1.4.1-2.8.6-4.2a10.4 10.4 0 0 0-1 5.6z"/>
    </g>
    <path d="M309.5 202.2s14.7 1.9 16-.2M338.5 196s8.2 0 10 3" fill="#000" opacity=".1"/>
    <path d="M518.8 189s1.2 1.4-.5 3.6c-1.8 2.2-3.3 4-2.7 5.4 0 0 2.7-4 4.8-4.1 2.2 0 .8-2.5-1.6-4.9z" fill="#6C63FF"/>
    <path d="M518.8 189l.2.5c2.1 2.2 3.3 4.3 1.2 4.4-1.9 0-4.2 3.1-4.7 4v.1s2.7-4 5-4.1c2.1 0 .7-2.5-1.7-4.9z" fill="#000" opacity=".1"/>
    <path d="M521.2 190.3c0 .4 0 .7-.2.7-.1 0-.2-.3-.2-.7 0-.4.1-.3.2-.3s.2-.1.2.3z" fill="#FFD037"/>
    <path d="M521.3 190.5c-.4.4-.8.6-.8.5 0-.1.3-.5.7-.8.4-.4.2-.1.2 0 0 0 .3 0-.1.3z" fill="#FFD037"/>
    <path d="M513.2 189s-1.2 1.4.5 3.6c1.8 2.2 3.3 4 2.7 5.4 0 0-2.7-4-4.8-4.1-2.2 0-.8-2.5 1.6-4.9z" fill="#6C63FF"/>
    <path d="M513.2 189l-.2.5c-2.1 2.2-3.3 4.3-1.2 4.4 1.9 0 4.2 3.1 4.7 4v.1s-2.7-4-5-4.1c-2.1 0-.7-2.5 1.7-4.9z" fill="#000" opacity=".1"/>
    <path d="M510.8 190.3c0 .4 0 .7.2.7.2-.2.3-.5.2-.7 0-.4-.1-.3-.2-.3-.2 0-.2-.1-.2.3zM509.7 190.5c.4.4.8.6.8.5 0-.1-.3-.5-.7-.8-.3-.4-.2-.1-.2 0 0 0-.3 0 .1.3z" fill="#FFD037"/>
    <path d="M511.5 196.7s3 0 3.8-.8c1-.6 4.6-1.5 4.8-.4.2 1.1 4.4 5.4 1.1 5.5a26 26 0 0 1-8.6-1.1c-.9-.6-1.1-3.2-1.1-3.2z" fill="#A8A8A8"/>
    <path d="M521.3 200.6c-3.3 0-7.8-.5-8.6-1-.7-.4-1-2-1-2.6h-.2s.2 2.4 1 3c1 .5 5.4 1 8.7 1 1 0 1.3-.4 1.3-.9-.1.3-.5.5-1.2.5z" fill="#000" opacity=".2"/>
  </g>
</svg>
